<svg xmlns="http://www.w3.org/2000/svg" xmlns:xlink="http://www.w3.org/1999/xlink" width="500" zoomAndPan="magnify" viewBox="0 0 375 374.999991" height="500" preserveAspectRatio="xMidYMid meet" version="1.0"><defs><g/><clipPath id="b5b102b1ea"><path d="M 6.75 0 L 342.535156 0 L 342.535156 375 L 6.75 375 Z M 6.75 0 " clip-rule="nonzero"/></clipPath><clipPath id="e9a1a6803a"><path d="M 363 138 L 368 138 L 368 143.726562 L 363 143.726562 Z M 363 138 " clip-rule="nonzero"/></clipPath><clipPath id="3e20cb084c"><path d="M 307 268 L 326 268 L 326 294 L 307 294 Z M 307 268 " clip-rule="nonzero"/></clipPath><clipPath id="2efc7b914e"><path d="M 199.632812 281.917969 L 341.035156 231.609375 L 364.910156 298.714844 L 223.507812 349.023438 Z M 199.632812 281.917969 " clip-rule="nonzero"/></clipPath><clipPath id="e595f1b1e0"><path d="M 365.066406 298.089844 L 223.664062 348.398438 L 199.789062 281.292969 L 341.191406 230.984375 Z M 365.066406 298.089844 " clip-rule="nonzero"/></clipPath><clipPath id="7db3848712"><path d="M 326 265 L 358 265 L 358 288 L 326 288 Z M 326 265 " clip-rule="nonzero"/></clipPath><clipPath id="72a3a8516e"><path d="M 199.632812 281.917969 L 341.035156 231.609375 L 364.910156 298.714844 L 223.507812 349.023438 Z M 199.632812 281.917969 " clip-rule="nonzero"/></clipPath><clipPath id="416a6fd9e4"><path d="M 365.066406 298.089844 L 223.664062 348.398438 L 199.789062 281.292969 L 341.191406 230.984375 Z M 365.066406 298.089844 " clip-rule="nonzero"/></clipPath><clipPath id="43de397f44"><path d="M 300 244 L 327 244 L 327 270 L 300 270 Z M 300 244 " clip-rule="nonzero"/></clipPath><clipPath id="8099fbb801"><path d="M 199.632812 281.917969 L 341.035156 231.609375 L 364.910156 298.714844 L 223.507812 349.023438 Z M 199.632812 281.917969 " clip-rule="nonzero"/></clipPath><clipPath id="486f736822"><path d="M 365.066406 298.089844 L 223.664062 348.398438 L 199.789062 281.292969 L 341.191406 230.984375 Z M 365.066406 298.089844 " clip-rule="nonzero"/></clipPath><clipPath id="99634a9c09"><path d="M 308 267 L 330 267 L 330 296 L 308 296 Z M 308 267 " clip-rule="nonzero"/></clipPath><clipPath id="96f1015bd2"><path d="M 199.632812 281.917969 L 341.035156 231.609375 L 364.910156 298.714844 L 223.507812 349.023438 Z M 199.632812 281.917969 " clip-rule="nonzero"/></clipPath><clipPath id="ae8542bd4e"><path d="M 365.066406 298.089844 L 223.664062 348.398438 L 199.789062 281.292969 L 341.191406 230.984375 Z M 365.066406 298.089844 " clip-rule="nonzero"/></clipPath><clipPath id="800e53bd58"><path d="M 324 257 L 335 257 L 335 268 L 324 268 Z M 324 257 " clip-rule="nonzero"/></clipPath><clipPath id="74a0bbbf53"><path d="M 199.632812 281.917969 L 341.035156 231.609375 L 364.910156 298.714844 L 223.507812 349.023438 Z M 199.632812 281.917969 " clip-rule="nonzero"/></clipPath><clipPath id="e26b2976cb"><path d="M 365.066406 298.089844 L 223.664062 348.398438 L 199.789062 281.292969 L 341.191406 230.984375 Z M 365.066406 298.089844 " clip-rule="nonzero"/></clipPath><clipPath id="fe15a6b451"><path d="M 326 249 L 332 249 L 332 259 L 326 259 Z M 326 249 " clip-rule="nonzero"/></clipPath><clipPath id="05e338a723"><path d="M 199.632812 281.917969 L 341.035156 231.609375 L 364.910156 298.714844 L 223.507812 349.023438 Z M 199.632812 281.917969 " clip-rule="nonzero"/></clipPath><clipPath id="35f4e3a379"><path d="M 365.066406 298.089844 L 223.664062 348.398438 L 199.789062 281.292969 L 341.191406 230.984375 Z M 365.066406 298.089844 " clip-rule="nonzero"/></clipPath><clipPath id="8dc82565b5"><path d="M 332 258 L 343 258 L 343 261 L 332 261 Z M 332 258 " clip-rule="nonzero"/></clipPath><clipPath id="454bcac773"><path d="M 199.632812 281.917969 L 341.035156 231.609375 L 364.910156 298.714844 L 223.507812 349.023438 Z M 199.632812 281.917969 " clip-rule="nonzero"/></clipPath><clipPath id="2c630dd34f"><path d="M 365.066406 298.089844 L 223.664062 348.398438 L 199.789062 281.292969 L 341.191406 230.984375 Z M 365.066406 298.089844 " clip-rule="nonzero"/></clipPath><clipPath id="47ad21ad5f"><path d="M 325 266 L 328 266 L 328 270 L 325 270 Z M 325 266 " clip-rule="nonzero"/></clipPath><clipPath id="bb9151693c"><path d="M 199.632812 281.917969 L 341.035156 231.609375 L 364.910156 298.714844 L 223.507812 349.023438 Z M 199.632812 281.917969 " clip-rule="nonzero"/></clipPath><clipPath id="27f9688d4f"><path d="M 365.066406 298.089844 L 223.664062 348.398438 L 199.789062 281.292969 L 341.191406 230.984375 Z M 365.066406 298.089844 " clip-rule="nonzero"/></clipPath><clipPath id="843fc92a6b"><path d="M 315 271 L 329 271 L 329 280 L 315 280 Z M 315 271 " clip-rule="nonzero"/></clipPath><clipPath id="586442b217"><path d="M 199.632812 281.917969 L 341.035156 231.609375 L 364.910156 298.714844 L 223.507812 349.023438 Z M 199.632812 281.917969 " clip-rule="nonzero"/></clipPath><clipPath id="e12ea890d8"><path d="M 365.066406 298.089844 L 223.664062 348.398438 L 199.789062 281.292969 L 341.191406 230.984375 Z M 365.066406 298.089844 " clip-rule="nonzero"/></clipPath><clipPath id="5a8b0443e7"><path d="M 308 283 L 321 283 L 321 292 L 308 292 Z M 308 283 " clip-rule="nonzero"/></clipPath><clipPath id="b293d2922b"><path d="M 199.632812 281.917969 L 341.035156 231.609375 L 364.910156 298.714844 L 223.507812 349.023438 Z M 199.632812 281.917969 " clip-rule="nonzero"/></clipPath><clipPath id="0bffd898b5"><path d="M 365.066406 298.089844 L 223.664062 348.398438 L 199.789062 281.292969 L 341.191406 230.984375 Z M 365.066406 298.089844 " clip-rule="nonzero"/></clipPath><clipPath id="8fd6d09afc"><path d="M 310 276 L 327 276 L 327 287 L 310 287 Z M 310 276 " clip-rule="nonzero"/></clipPath><clipPath id="c51d961347"><path d="M 199.632812 281.917969 L 341.035156 231.609375 L 364.910156 298.714844 L 223.507812 349.023438 Z M 199.632812 281.917969 " clip-rule="nonzero"/></clipPath><clipPath id="f96be93127"><path d="M 365.066406 298.089844 L 223.664062 348.398438 L 199.789062 281.292969 L 341.191406 230.984375 Z M 365.066406 298.089844 " clip-rule="nonzero"/></clipPath><clipPath id="86e8a4aa21"><path d="M 212 286 L 306 286 L 306 340 L 212 340 Z M 212 286 " clip-rule="nonzero"/></clipPath><clipPath id="060476a15b"><path d="M 199.632812 281.917969 L 341.035156 231.609375 L 364.910156 298.714844 L 223.507812 349.023438 Z M 199.632812 281.917969 " clip-rule="nonzero"/></clipPath><clipPath id="a60e692014"><path d="M 365.066406 298.089844 L 223.664062 348.398438 L 199.789062 281.292969 L 341.191406 230.984375 Z M 365.066406 298.089844 " clip-rule="nonzero"/></clipPath></defs><path fill="#deb887" d="M 318.492188 83.5625 L 192.515625 18.273438 C 187.582031 15.714844 181.289062 14.3125 174.867188 14.3125 C 168.445312 14.3125 162.089844 15.699219 157.175781 18.253906 L 30.875 83.445312 C 20.664062 88.726562 12.695312 100.21875 12.695312 110.769531 C 12.695312 110.769531 12.695312 124.351562 12.695312 124.355469 C 12.695312 135.488281 64.074219 130.195312 69.425781 128.246094 C 86.824219 121.894531 99.140625 114.839844 118.449219 122.382812 C 135.546875 129.058594 140.347656 144.414062 135.761719 159.996094 C 132.867188 169.835938 129.164062 196.949219 147.464844 196.949219 C 160.988281 196.949219 162.609375 178.605469 161.710938 170.484375 C 160.625 160.746094 156.4375 152.660156 158.664062 142.886719 C 161.4375 130.6875 178.921875 106.722656 203.082031 116.019531 C 209.570312 118.511719 217.484375 123.824219 220.832031 128.332031 C 225.320312 134.375 230.769531 141.316406 231.75 148.019531 C 235.039062 170.453125 211.191406 230.734375 244.453125 230.734375 C 271.816406 230.734375 257.964844 179.195312 255.390625 162.046875 C 253.863281 151.863281 255.347656 137.265625 262.191406 127.871094 C 264 125.398438 267.449219 122.730469 270.699219 122.042969 C 277.832031 120.535156 285.546875 124.882812 289.566406 129.886719 C 293.230469 134.457031 295.652344 141.125 302.558594 142.449219 C 306.421875 143.1875 310.59375 142.640625 313.21875 139.695312 C 318.097656 134.230469 323.683594 124.753906 326.039062 118.695312 C 329.792969 109.136719 326.507812 100.78125 327.871094 90.941406 C 325.21875 87.941406 322.011719 85.378906 318.492188 83.5625 " fill-opacity="1" fill-rule="nonzero"/><g clip-path="url(#b5b102b1ea)"><path fill="#deb887" d="M 326.613281 263.3125 C 326.613281 270.054688 322.148438 278.363281 316.3125 281.730469 L 185.582031 357.316406 C 179.753906 360.6875 170.273438 360.6875 164.425781 357.316406 L 33.613281 281.617188 C 27.765625 278.226562 22.585938 269.9375 22.585938 263.183594 L 22.203125 131.375 L 22.203125 111.871094 C 22.203125 105.132812 27.402344 96.84375 33.253906 93.457031 L 164.328125 17.867188 C 170.179688 14.480469 179.839844 14.480469 185.6875 17.867188 L 315.976562 93.574219 C 321.824219 96.960938 326.039062 105.246094 326.039062 112.003906 L 326.039062 123.050781 Z M 333.996094 88.878906 C 331.242188 85.398438 327.9375 82.429688 324.285156 80.328125 L 193.441406 4.621094 C 188.316406 1.65625 181.839844 0.0273438 175.167969 0.0273438 C 168.496094 0.0273438 162.019531 1.636719 156.914062 4.605469 L 25.542969 80.191406 C 14.9375 86.316406 6.75 99.640625 6.75 111.871094 L 6.75 127.625 L 7.234375 263.183594 C 7.234375 275.414062 15.167969 288.753906 25.738281 294.863281 L 156.730469 370.582031 C 161.855469 373.53125 168.394531 375.160156 175.066406 375.160156 C 181.734375 375.160156 188.246094 373.53125 193.351562 370.582031 L 324.234375 294.996094 C 334.824219 288.867188 342.515625 275.546875 342.515625 263.3125 L 342.554688 112.003906 C 342.554688 103.984375 339.253906 95.503906 333.996094 88.878906 " fill-opacity="1" fill-rule="nonzero"/></g><path fill="#100f0d" d="M 128.8125 52.203125 L 129.722656 52.359375 L 129.707031 52.492188 C 129.601562 53.125 129.175781 55.996094 129.175781 59.742188 C 129.175781 63.777344 129.675781 68.824219 131.546875 73.15625 C 132.472656 75.324219 133.742188 77.3125 135.445312 78.933594 C 137.148438 80.558594 139.289062 81.828125 142.027344 82.570312 C 143.6875 83.015625 145.015625 83.210938 146.011719 83.207031 C 147.195312 83.207031 147.871094 82.941406 148.226562 82.617188 C 148.414062 82.449219 148.542969 82.261719 148.640625 82.003906 C 148.734375 81.75 148.789062 81.425781 148.789062 81.03125 C 148.804688 79.605469 148.007812 77.351562 146.632812 74.808594 C 142.535156 67.144531 133.542969 56.714844 128.855469 52.210938 L 130.085938 50.835938 C 130.089844 50.835938 130.417969 51.105469 131.007812 51.578125 C 133.058594 53.25 138.253906 57.429688 143.332031 61.179688 C 145.871094 63.050781 148.382812 64.824219 150.4375 66.105469 C 151.464844 66.75 152.378906 67.273438 153.109375 67.621094 C 153.476562 67.792969 153.789062 67.925781 154.042969 68.003906 C 154.289062 68.089844 154.472656 68.113281 154.523438 68.109375 L 154.535156 68.109375 L 154.585938 68.539062 L 154.273438 68.269531 C 154.382812 68.140625 154.523438 68.105469 154.535156 68.109375 L 154.585938 68.539062 L 154.273438 68.269531 L 154.644531 68.589844 L 154.175781 68.445312 L 154.273438 68.269531 L 154.644531 68.589844 L 154.175781 68.445312 L 154.382812 68.507812 L 154.164062 68.507812 L 154.175781 68.445312 L 154.382812 68.507812 L 154.164062 68.507812 L 154.164062 68.480469 L 154.15625 68.476562 C 154.0625 67.582031 153.429688 66.019531 152.292969 64.3125 C 150.585938 61.730469 147.773438 58.742188 144.09375 56.421875 C 140.414062 54.101562 135.878906 52.445312 130.660156 52.4375 C 130.289062 52.4375 129.917969 52.449219 129.542969 52.464844 L 129.5 51.542969 L 130.140625 52.210938 L 129.453125 52.867188 L 128.8125 52.203125 L 129.722656 52.359375 L 128.8125 52.203125 L 128.171875 51.535156 L 128.855469 50.878906 L 129.109375 50.636719 L 129.453125 50.625 C 129.859375 50.605469 130.261719 50.597656 130.660156 50.597656 C 138.15625 50.597656 144.332031 53.777344 148.6875 57.527344 C 150.867188 59.40625 152.597656 61.425781 153.835938 63.296875 C 155.070312 65.175781 155.820312 66.863281 155.996094 68.253906 L 155.996094 68.246094 L 156.015625 68.507812 C 156.015625 68.683594 155.988281 68.867188 155.917969 69.0625 C 155.820312 69.347656 155.578125 69.628906 155.304688 69.769531 C 155.027344 69.921875 154.761719 69.957031 154.523438 69.957031 C 154.109375 69.953125 153.734375 69.851562 153.3125 69.707031 C 152.535156 69.425781 151.617188 68.957031 150.554688 68.339844 C 146.863281 66.171875 141.480469 62.167969 136.988281 58.6875 C 132.496094 55.207031 128.914062 52.257812 128.910156 52.253906 L 129.5 51.542969 L 130.144531 50.882812 C 133.367188 53.992188 138.433594 59.652344 142.730469 65.449219 C 144.882812 68.34375 146.835938 71.269531 148.265625 73.941406 C 149.691406 76.621094 150.625 79.007812 150.644531 81.03125 C 150.644531 81.59375 150.5625 82.140625 150.371094 82.648438 C 150.09375 83.410156 149.539062 84.070312 148.777344 84.46875 C 148.015625 84.878906 147.097656 85.054688 146.011719 85.054688 C 144.773438 85.054688 143.3125 84.824219 141.546875 84.347656 C 138.519531 83.539062 136.082031 82.097656 134.164062 80.269531 C 131.289062 77.519531 129.585938 73.9375 128.601562 70.277344 C 127.609375 66.621094 127.328125 62.878906 127.328125 59.742188 C 127.328125 55.304688 127.898438 52.078125 127.902344 52.039062 L 127.953125 51.742188 L 128.171875 51.535156 L 128.8125 52.203125 " fill-opacity="1" fill-rule="nonzero"/><path fill="#100f0d" d="M 126.890625 50.199219 L 127.003906 51.117188 C 126.976562 51.121094 125.144531 51.347656 122.351562 51.347656 C 118.5 51.347656 112.832031 50.921875 107.539062 48.839844 C 104.894531 47.792969 102.339844 46.328125 100.179688 44.269531 C 98.015625 42.214844 96.257812 39.566406 95.222656 36.222656 C 94.5625 34.09375 94.246094 32.402344 94.238281 31.027344 C 94.246094 29.796875 94.5 28.773438 95.144531 28.019531 C 95.46875 27.652344 95.875 27.375 96.324219 27.203125 C 96.765625 27.03125 97.242188 26.960938 97.734375 26.960938 C 98.722656 26.964844 99.785156 27.242188 100.949219 27.691406 C 104.988281 29.285156 110.316406 33.164062 115.375 37.394531 C 120.421875 41.621094 125.136719 46.183594 127.773438 49.144531 L 127.078125 49.753906 L 126.332031 50.300781 C 126.328125 50.292969 122.328125 44.847656 118.320312 38.886719 C 116.3125 35.90625 114.304688 32.796875 112.789062 30.160156 C 112.03125 28.839844 111.390625 27.636719 110.9375 26.609375 C 110.707031 26.101562 110.519531 25.628906 110.386719 25.199219 C 110.257812 24.765625 110.171875 24.375 110.167969 23.976562 C 110.171875 23.652344 110.222656 23.28125 110.503906 22.925781 C 110.640625 22.753906 110.835938 22.613281 111.035156 22.53125 C 111.238281 22.449219 111.441406 22.421875 111.625 22.421875 C 111.742188 22.421875 111.851562 22.429688 111.957031 22.449219 C 113.304688 22.679688 114.917969 23.464844 116.699219 24.714844 C 119.351562 26.597656 122.304688 29.550781 124.621094 33.382812 C 126.933594 37.222656 128.601562 41.949219 128.601562 47.324219 C 128.601562 48.082031 128.570312 48.847656 128.5 49.632812 L 128.46875 49.976562 L 127.308594 51.082031 L 127.003906 51.117188 L 126.890625 50.199219 L 126.25 49.535156 L 126.9375 48.882812 L 127.574219 49.546875 L 126.65625 49.46875 C 126.71875 48.742188 126.746094 48.023438 126.746094 47.324219 C 126.753906 40.675781 123.996094 35.0625 120.691406 31.019531 C 119.035156 28.996094 117.25 27.367188 115.621094 26.21875 C 114.007812 25.070312 112.527344 24.402344 111.65625 24.265625 L 111.625 24.265625 L 111.625 23.953125 L 111.742188 24.234375 L 111.625 24.265625 L 111.625 23.953125 L 111.742188 24.234375 L 111.554688 23.78125 L 111.996094 23.996094 C 111.96875 24.074219 111.847656 24.199219 111.742188 24.234375 L 111.554688 23.78125 L 111.996094 23.996094 L 111.773438 23.886719 L 112.023438 23.9375 L 111.996094 23.996094 L 111.773438 23.886719 L 112.023438 23.9375 L 112.019531 23.976562 C 112.019531 24.078125 112.054688 24.332031 112.160156 24.660156 C 112.542969 25.914062 113.730469 28.175781 115.277344 30.734375 C 117.605469 34.597656 120.746094 39.222656 123.304688 42.875 C 124.582031 44.699219 125.714844 46.289062 126.523438 47.414062 C 127.335938 48.542969 127.828125 49.210938 127.828125 49.210938 L 126.390625 50.367188 C 123.480469 47.101562 117.777344 41.644531 112.035156 37.046875 C 109.167969 34.746094 106.28125 32.65625 103.746094 31.160156 C 102.480469 30.410156 101.300781 29.808594 100.269531 29.410156 C 99.242188 29.003906 98.359375 28.800781 97.734375 28.804688 C 97.417969 28.804688 97.175781 28.851562 96.988281 28.921875 C 96.710938 29.035156 96.542969 29.175781 96.378906 29.484375 C 96.214844 29.789062 96.09375 30.296875 96.09375 31.027344 C 96.09375 32.105469 96.363281 33.65625 96.988281 35.679688 C 97.9375 38.722656 99.507812 41.078125 101.457031 42.933594 C 104.378906 45.71875 108.195312 47.375 111.996094 48.320312 C 115.796875 49.265625 119.570312 49.503906 122.351562 49.503906 C 123.695312 49.503906 124.8125 49.445312 125.585938 49.394531 C 125.96875 49.367188 126.269531 49.339844 126.472656 49.320312 L 126.703125 49.296875 L 126.773438 49.289062 L 126.890625 50.199219 L 126.25 49.535156 L 126.890625 50.199219 " fill-opacity="1" fill-rule="nonzero"/><path fill="#211c1d" d="M 131.933594 52.480469 C 131.933594 52.480469 127.261719 78.992188 144.90625 83.738281 C 165.0625 89.15625 141.496094 60.371094 132.621094 51.824219 C 132.621094 51.824219 158.773438 73.332031 158.203125 68.644531 C 157.632812 63.949219 147.730469 51.140625 132.621094 51.824219 L 131.933594 52.480469 " fill-opacity="1" fill-rule="nonzero"/><path fill="#211c1d" d="M 130.011719 50.476562 C 130.011719 50.476562 104.628906 53.636719 99.226562 36.230469 C 92.707031 15.214844 122.011719 40.835938 130.203125 50.035156 C 130.203125 50.035156 110.246094 22.871094 114.929688 23.636719 C 119.609375 24.402344 132.023438 34.808594 130.695312 49.824219 L 130.011719 50.476562 " fill-opacity="1" fill-rule="nonzero"/><path fill="#100f0d" d="M 133.339844 32.273438 L 134.113281 33.019531 C 132.863281 34.304688 131.484375 36.410156 130.457031 38.707031 C 129.421875 41 128.738281 43.503906 128.742188 45.546875 C 128.742188 46.335938 128.839844 47.054688 129.042969 47.671875 C 129.242188 48.285156 129.535156 48.792969 129.9375 49.21875 C 130.375 49.671875 130.925781 50.003906 131.605469 50.230469 C 132.289062 50.457031 133.09375 50.570312 133.976562 50.570312 C 136.019531 50.570312 138.464844 49.96875 140.71875 49.042969 C 142.976562 48.125 145.050781 46.890625 146.359375 45.742188 C 149.433594 43.046875 151.207031 39.878906 152.222656 36.855469 C 153.234375 33.832031 153.476562 30.957031 153.476562 28.933594 C 153.476562 28.039062 153.429688 27.3125 153.382812 26.8125 C 153.359375 26.5625 153.335938 26.371094 153.316406 26.246094 L 153.296875 26.070312 L 154.355469 25.894531 L 154.148438 26.945312 L 154.140625 26.945312 C 154.007812 26.917969 152.539062 26.660156 150.355469 26.660156 C 148.246094 26.660156 145.46875 26.902344 142.589844 27.824219 C 139.703125 28.742188 136.71875 30.324219 134.113281 33.019531 L 132.566406 31.527344 C 135.449219 28.546875 138.777344 26.78125 141.933594 25.777344 C 145.09375 24.773438 148.078125 24.511719 150.355469 24.511719 C 152.867188 24.511719 154.511719 24.832031 154.558594 24.84375 L 155.292969 24.984375 L 155.417969 25.714844 C 155.421875 25.765625 155.625 26.996094 155.625 28.933594 C 155.625 31.125 155.371094 34.222656 154.265625 37.535156 C 153.160156 40.84375 151.1875 44.375 147.777344 47.355469 C 146.210938 48.714844 143.984375 50.023438 141.539062 51.027344 C 139.089844 52.023438 136.425781 52.707031 133.976562 52.710938 C 132.910156 52.710938 131.882812 52.582031 130.925781 52.261719 C 129.976562 51.949219 129.089844 51.4375 128.382812 50.699219 C 127.730469 50.019531 127.273438 49.203125 126.992188 48.328125 C 126.707031 47.449219 126.589844 46.511719 126.589844 45.546875 C 126.59375 43.046875 127.375 40.328125 128.496094 37.832031 C 129.617188 35.335938 131.078125 33.074219 132.566406 31.527344 L 133.339844 32.273438 " fill-opacity="1" fill-rule="nonzero"/><path fill="#100f0d" d="M 119.601562 52.296875 L 120.136719 52.847656 C 119.597656 53.359375 119.09375 54.121094 118.734375 54.972656 C 118.378906 55.820312 118.167969 56.746094 118.167969 57.574219 C 118.167969 58.484375 118.414062 59.234375 118.898438 59.738281 C 119.417969 60.277344 120.253906 60.558594 121.265625 60.5625 C 122.882812 60.574219 124.835938 59.789062 125.855469 58.796875 C 126.703125 57.992188 127.128906 56.914062 127.128906 55.824219 C 127.128906 54.796875 126.746094 53.773438 125.980469 52.972656 C 125.164062 52.125 124.082031 51.707031 122.992188 51.703125 C 121.964844 51.707031 120.9375 52.082031 120.136719 52.847656 L 119.601562 52.296875 L 119.070312 51.742188 C 120.167969 50.695312 121.585938 50.167969 122.992188 50.167969 C 124.484375 50.167969 125.980469 50.757812 127.089844 51.910156 C 128.140625 53.007812 128.667969 54.421875 128.667969 55.824219 C 128.667969 57.308594 128.078125 58.796875 126.921875 59.910156 C 125.523438 61.222656 123.335938 62.082031 121.265625 62.09375 C 119.988281 62.09375 118.703125 61.742188 117.789062 60.792969 C 116.949219 59.921875 116.632812 58.746094 116.632812 57.574219 C 116.636719 56.492188 116.890625 55.386719 117.320312 54.378906 C 117.75 53.363281 118.34375 52.4375 119.070312 51.742188 L 119.601562 52.296875 " fill-opacity="1" fill-rule="nonzero"/><path fill="#100f0d" d="M 107.921875 55.375 C 107.964844 55.417969 108.609375 56.109375 109.789062 56.78125 C 110.976562 57.449219 112.683594 58.101562 114.890625 58.101562 C 115.648438 58.101562 116.46875 58.027344 117.347656 57.84375 L 117.65625 59.34375 C 116.675781 59.546875 115.75 59.636719 114.890625 59.636719 C 112.292969 59.636719 110.269531 58.839844 108.902344 58.035156 C 107.53125 57.238281 106.8125 56.4375 106.769531 56.390625 L 107.921875 55.375 " fill-opacity="1" fill-rule="nonzero"/><path fill="#100f0d" d="M 120.734375 61.367188 C 120.46875 62.417969 120.359375 63.386719 120.359375 64.273438 C 120.359375 66.390625 120.980469 68.042969 121.605469 69.171875 C 121.914062 69.734375 122.222656 70.167969 122.453125 70.453125 C 122.566406 70.59375 122.65625 70.703125 122.722656 70.765625 L 122.789062 70.84375 L 122.804688 70.855469 L 121.738281 71.957031 C 121.695312 71.917969 120.976562 71.214844 120.257812 69.914062 C 119.535156 68.609375 118.820312 66.695312 118.820312 64.273438 C 118.820312 63.261719 118.945312 62.160156 119.246094 60.988281 L 120.734375 61.367188 " fill-opacity="1" fill-rule="nonzero"/><path fill="#100f0d" d="M 126.855469 50.234375 C 126.148438 50.910156 126.015625 51.914062 126.558594 52.480469 C 127.105469 53.046875 128.117188 52.953125 128.824219 52.28125 C 129.523438 51.609375 129.660156 50.605469 129.117188 50.039062 C 128.574219 49.46875 127.5625 49.558594 126.855469 50.234375 " fill-opacity="1" fill-rule="nonzero"/><path fill="#100f0d" d="M 129.539062 37.570312 C 129.652344 37.59375 131.5 38 133.90625 39.734375 C 136.3125 41.476562 139.257812 44.550781 141.546875 49.835938 L 139.570312 50.683594 C 137.421875 45.742188 134.75 43 132.640625 41.472656 C 131.589844 40.707031 130.675781 40.253906 130.039062 39.988281 C 129.71875 39.859375 129.472656 39.773438 129.308594 39.726562 L 129.132812 39.675781 L 129.097656 39.667969 L 129.121094 39.5625 L 129.101562 39.667969 L 129.097656 39.667969 L 129.121094 39.5625 L 129.101562 39.667969 L 129.539062 37.570312 " fill-opacity="1" fill-rule="nonzero"/><path fill="#100f0d" d="M 142.09375 25.578125 C 142.210938 25.601562 144.058594 26.003906 146.464844 27.742188 C 148.871094 29.480469 151.8125 32.554688 154.105469 37.839844 L 152.128906 38.691406 C 149.984375 33.742188 147.308594 31.003906 145.203125 29.480469 C 144.152344 28.71875 143.238281 28.257812 142.597656 28 C 142.28125 27.867188 142.035156 27.785156 141.871094 27.734375 L 141.691406 27.6875 L 141.65625 27.675781 L 141.683594 27.5625 L 141.664062 27.675781 L 141.65625 27.675781 L 141.683594 27.5625 L 141.664062 27.675781 L 142.09375 25.578125 " fill-opacity="1" fill-rule="nonzero"/><path fill="#100f0d" d="M 134.4375 29.941406 C 134.605469 29.976562 136.914062 30.488281 139.902344 32.652344 C 142.894531 34.8125 146.542969 38.632812 149.371094 45.15625 L 146.40625 46.433594 C 143.789062 40.410156 140.546875 37.09375 138.011719 35.253906 C 136.738281 34.332031 135.640625 33.785156 134.875 33.46875 C 134.496094 33.3125 134.199219 33.210938 134.007812 33.15625 L 133.804688 33.097656 L 133.769531 33.089844 L 133.980469 32.101562 L 133.777344 33.09375 L 133.769531 33.089844 L 133.980469 32.101562 L 133.777344 33.09375 L 134.4375 29.941406 " fill-opacity="1" fill-rule="nonzero"/><path fill="#100f0d" d="M 165.035156 11.832031 C 166.019531 10.949219 167.074219 10.097656 168.191406 9.289062 C 168.632812 8.964844 169.253906 9.058594 169.578125 9.5 C 169.898438 9.941406 169.800781 10.558594 169.359375 10.878906 C 168.292969 11.660156 167.289062 12.464844 166.355469 13.296875 C 165.949219 13.664062 165.324219 13.628906 164.957031 13.222656 C 164.59375 12.816406 164.628906 12.191406 165.035156 11.832031 " fill-opacity="1" fill-rule="nonzero"/><path fill="#100f0d" d="M 175.074219 5.109375 C 177.445312 3.921875 179.949219 2.898438 182.523438 2.078125 C 183.042969 1.914062 183.601562 2.203125 183.765625 2.722656 C 183.933594 3.238281 183.644531 3.792969 183.125 3.960938 C 180.652344 4.746094 178.242188 5.730469 175.960938 6.871094 C 175.476562 7.121094 174.878906 6.921875 174.632812 6.4375 C 174.386719 5.949219 174.585938 5.355469 175.074219 5.109375 Z M 190.382812 0.300781 C 192.078125 0.078125 193.765625 -0.0351562 195.449219 -0.0351562 C 196.464844 -0.0351562 197.480469 0.00390625 198.484375 0.09375 C 199.027344 0.144531 199.429688 0.625 199.382812 1.167969 C 199.335938 1.707031 198.851562 2.109375 198.308594 2.0625 C 197.363281 1.976562 196.410156 1.933594 195.449219 1.933594 C 193.863281 1.933594 192.253906 2.046875 190.644531 2.257812 C 190.105469 2.332031 189.605469 1.949219 189.535156 1.414062 C 189.464844 0.871094 189.84375 0.371094 190.382812 0.300781 Z M 206.425781 1.953125 C 208.9375 2.960938 211.289062 4.378906 213.394531 6.261719 C 213.804688 6.621094 213.835938 7.246094 213.476562 7.652344 C 213.109375 8.058594 212.484375 8.09375 212.074219 7.726562 C 210.144531 6.007812 208 4.710938 205.6875 3.785156 C 205.179688 3.582031 204.9375 3.003906 205.140625 2.5 C 205.34375 1.996094 205.921875 1.746094 206.425781 1.953125 Z M 218.457031 12.691406 C 219.777344 15.160156 220.609375 17.792969 221.03125 20.441406 C 221.117188 20.980469 220.742188 21.484375 220.203125 21.570312 C 219.664062 21.652344 219.15625 21.289062 219.074219 20.75 C 218.683594 18.296875 217.917969 15.878906 216.710938 13.621094 C 216.453125 13.136719 216.636719 12.539062 217.121094 12.28125 C 217.605469 12.027344 218.207031 12.210938 218.460938 12.691406 Z M 221.089844 28.570312 C 220.699219 31.371094 219.90625 34.03125 218.789062 36.386719 C 218.554688 36.878906 217.960938 37.089844 217.46875 36.855469 C 216.976562 36.625 216.765625 36.039062 217 35.542969 C 218.023438 33.378906 218.765625 30.90625 219.128906 28.304688 C 219.207031 27.765625 219.703125 27.386719 220.246094 27.460938 C 220.789062 27.535156 221.164062 28.035156 221.089844 28.570312 Z M 213.824219 42.976562 C 211.847656 44.589844 209.523438 45.570312 207.023438 45.566406 C 206.601562 45.566406 206.179688 45.539062 205.753906 45.480469 C 205.210938 45.410156 204.832031 44.917969 204.902344 44.375 C 204.972656 43.832031 205.472656 43.453125 206.015625 43.523438 C 206.355469 43.570312 206.691406 43.589844 207.023438 43.589844 C 208.996094 43.589844 210.867188 42.832031 212.574219 41.449219 C 212.996094 41.105469 213.621094 41.171875 213.964844 41.589844 C 214.308594 42.011719 214.25 42.632812 213.824219 42.976562 Z M 198.355469 41.550781 L 198.339844 41.53125 C 197.300781 40.527344 196.527344 39.554688 196.003906 38.578125 C 195.476562 37.609375 195.207031 36.636719 195.207031 35.6875 C 195.207031 34.917969 195.390625 34.175781 195.71875 33.5 C 195.957031 33.003906 196.546875 32.800781 197.039062 33.035156 C 197.535156 33.273438 197.738281 33.863281 197.503906 34.355469 C 197.296875 34.789062 197.191406 35.222656 197.191406 35.6875 C 197.191406 36.261719 197.347656 36.90625 197.746094 37.644531 C 198.144531 38.386719 198.785156 39.214844 199.71875 40.113281 L 199.730469 40.125 C 200.128906 40.503906 200.140625 41.132812 199.757812 41.523438 C 199.378906 41.914062 198.75 41.925781 198.355469 41.550781 Z M 202.53125 28.511719 C 204.839844 27.65625 207.527344 27.007812 210.375 26.554688 C 210.914062 26.464844 211.421875 26.835938 211.511719 27.375 C 211.59375 27.910156 211.226562 28.417969 210.6875 28.5 C 207.9375 28.941406 205.367188 29.566406 203.222656 30.359375 C 202.707031 30.550781 202.136719 30.289062 201.949219 29.78125 C 201.757812 29.269531 202.019531 28.699219 202.53125 28.511719 Z M 218.363281 25.800781 C 219.121094 25.773438 219.878906 25.761719 220.625 25.761719 C 222.617188 25.761719 224.5625 25.851562 226.390625 26.039062 C 226.933594 26.089844 227.332031 26.574219 227.273438 27.117188 C 227.21875 27.660156 226.734375 28.054688 226.1875 28 C 224.441406 27.824219 222.558594 27.734375 220.625 27.734375 C 219.898438 27.734375 219.164062 27.746094 218.429688 27.769531 C 217.882812 27.792969 217.425781 27.363281 217.40625 26.816406 C 217.386719 26.277344 217.816406 25.816406 218.363281 25.800781 Z M 234.363281 27.835938 L 234.496094 27.898438 C 236.992188 29.011719 239.222656 30.527344 241.191406 32.339844 C 241.59375 32.710938 241.613281 33.332031 241.246094 33.730469 C 240.875 34.132812 240.246094 34.160156 239.84375 33.789062 C 238.019531 32.109375 235.972656 30.722656 233.683594 29.695312 L 233.570312 29.648438 C 233.070312 29.429688 232.839844 28.851562 233.058594 28.347656 C 233.28125 27.847656 233.863281 27.621094 234.363281 27.835938 Z M 246.355469 38.597656 C 247.769531 40.832031 248.96875 43.253906 249.960938 45.796875 C 250.160156 46.304688 249.910156 46.878906 249.402344 47.078125 C 248.890625 47.273438 248.316406 47.023438 248.117188 46.515625 C 247.164062 44.074219 246.019531 41.765625 244.679688 39.65625 C 244.386719 39.191406 244.523438 38.585938 244.988281 38.292969 C 245.449219 38.003906 246.0625 38.140625 246.355469 38.597656 Z M 252.316406 53.457031 C 252.921875 56.0625 253.355469 58.710938 253.632812 61.339844 C 253.691406 61.882812 253.296875 62.371094 252.753906 62.429688 C 252.207031 62.484375 251.71875 62.089844 251.660156 61.546875 C 251.390625 58.992188 250.96875 56.421875 250.386719 53.902344 C 250.261719 53.371094 250.59375 52.839844 251.125 52.71875 C 251.660156 52.59375 252.191406 52.925781 252.316406 53.457031 Z M 254.011719 69.316406 C 253.984375 72.105469 253.78125 74.796875 253.425781 77.292969 C 253.34375 77.832031 252.839844 78.207031 252.300781 78.132812 C 251.761719 78.050781 251.386719 77.554688 251.460938 77.011719 C 251.804688 74.605469 252.003906 72.003906 252.03125 69.296875 C 252.035156 68.753906 252.488281 68.3125 253.035156 68.320312 C 253.578125 68.324219 254.015625 68.769531 254.011719 69.316406 Z M 251.894531 85.09375 C 251.261719 87.875 250.632812 90.398438 250.15625 92.75 C 250.046875 93.28125 249.523438 93.625 248.988281 93.519531 C 248.449219 93.410156 248.105469 92.890625 248.214844 92.355469 C 248.707031 89.945312 249.335938 87.417969 249.960938 84.65625 C 250.082031 84.125 250.613281 83.792969 251.148438 83.914062 C 251.679688 84.03125 252.015625 84.5625 251.894531 85.09375 Z M 249.28125 100.339844 C 249.320312 102.773438 249.753906 105.132812 250.808594 107.625 C 251.019531 108.128906 250.785156 108.707031 250.28125 108.917969 C 249.777344 109.128906 249.191406 108.894531 248.980469 108.394531 C 247.828125 105.660156 247.339844 103.019531 247.300781 100.371094 C 247.296875 99.824219 247.730469 99.375 248.277344 99.367188 C 248.824219 99.359375 249.277344 99.796875 249.28125 100.339844 Z M 254.777344 114.085938 C 255.648438 115.183594 256.648438 116.320312 257.785156 117.507812 C 258.527344 118.28125 259.285156 119.027344 260.046875 119.746094 C 260.445312 120.121094 260.464844 120.746094 260.09375 121.140625 C 259.714844 121.539062 259.089844 121.554688 258.691406 121.179688 C 257.898438 120.441406 257.121094 119.667969 256.351562 118.871094 C 255.179688 117.648438 254.140625 116.464844 253.226562 115.3125 C 252.886719 114.882812 252.960938 114.265625 253.382812 113.925781 C 253.8125 113.589844 254.4375 113.660156 254.777344 114.085938 Z M 266.054688 124.628906 C 268.203125 126.128906 270.425781 127.433594 272.710938 128.539062 C 273.203125 128.777344 273.410156 129.367188 273.171875 129.859375 C 272.933594 130.347656 272.339844 130.554688 271.84375 130.316406 C 269.460938 129.160156 267.148438 127.804688 264.917969 126.246094 C 264.464844 125.933594 264.359375 125.316406 264.671875 124.871094 C 264.988281 124.421875 265.601562 124.316406 266.054688 124.628906 Z M 279.917969 131.300781 C 282.382812 132.007812 284.90625 132.507812 287.484375 132.789062 C 288.027344 132.847656 288.421875 133.335938 288.363281 133.878906 C 288.300781 134.417969 287.816406 134.8125 287.273438 134.75 C 284.578125 134.460938 281.945312 133.9375 279.367188 133.199219 C 278.839844 133.042969 278.539062 132.496094 278.691406 131.972656 C 278.84375 131.449219 279.394531 131.148438 279.917969 131.300781 Z M 295.210938 132.984375 C 297.730469 132.835938 300.289062 132.496094 302.882812 131.957031 C 303.414062 131.839844 303.941406 132.183594 304.050781 132.71875 C 304.167969 133.25 303.824219 133.777344 303.289062 133.886719 C 300.605469 134.449219 297.941406 134.800781 295.320312 134.953125 C 294.777344 134.984375 294.308594 134.570312 294.277344 134.023438 C 294.246094 133.480469 294.660156 133.011719 295.210938 132.984375 Z M 310.308594 129.808594 C 312.652344 128.917969 315.046875 127.828125 317.472656 126.683594 C 317.96875 126.453125 318.558594 126.664062 318.789062 127.15625 C 319.023438 127.652344 318.8125 128.238281 318.316406 128.46875 C 315.875 129.617188 313.445312 130.730469 311.015625 131.65625 C 310.503906 131.851562 309.933594 131.59375 309.738281 131.082031 C 309.542969 130.578125 309.796875 130.003906 310.308594 129.808594 Z M 324.679688 123.371094 C 327.164062 122.304688 329.691406 121.347656 332.246094 120.671875 C 332.777344 120.527344 333.316406 120.84375 333.457031 121.367188 C 333.597656 121.894531 333.285156 122.4375 332.753906 122.578125 C 330.332031 123.21875 327.898438 124.136719 325.460938 125.1875 C 324.960938 125.402344 324.378906 125.167969 324.164062 124.671875 C 323.945312 124.167969 324.175781 123.585938 324.679688 123.371094 Z M 340.339844 119.652344 L 340.566406 119.660156 C 343.390625 119.789062 345.984375 120.480469 348.34375 121.578125 C 348.839844 121.808594 349.054688 122.398438 348.820312 122.890625 C 348.59375 123.382812 348.003906 123.601562 347.507812 123.367188 C 345.355469 122.371094 343.035156 121.75 340.472656 121.636719 L 340.269531 121.625 C 339.722656 121.605469 339.296875 121.152344 339.316406 120.605469 C 339.332031 120.058594 339.792969 119.632812 340.339844 119.652344 Z M 355.082031 126.167969 C 357.050781 127.964844 358.839844 130 360.496094 132.117188 C 360.832031 132.550781 360.757812 133.171875 360.324219 133.503906 C 359.894531 133.835938 359.269531 133.761719 358.933594 133.332031 C 357.324219 131.273438 355.605469 129.320312 353.746094 127.628906 C 353.34375 127.261719 353.316406 126.636719 353.6875 126.234375 C 354.054688 125.835938 354.679688 125.804688 355.082031 126.167969 " fill-opacity="1" fill-rule="nonzero"/><g clip-path="url(#e9a1a6803a)"><path fill="#100f0d" d="M 365.199219 138.714844 C 365.949219 139.835938 366.675781 140.941406 367.390625 142.003906 C 367.695312 142.460938 367.570312 143.074219 367.109375 143.375 C 366.660156 143.679688 366.039062 143.554688 365.738281 143.097656 C 365.023438 142.027344 364.296875 140.921875 363.550781 139.808594 C 363.246094 139.355469 363.371094 138.742188 363.824219 138.441406 C 364.28125 138.140625 364.894531 138.261719 365.199219 138.714844 " fill-opacity="1" fill-rule="nonzero"/></g><g clip-path="url(#3e20cb084c)"><g clip-path="url(#2efc7b914e)"><g clip-path="url(#e595f1b1e0)"><path fill="#deb887" d="M 309.890625 275.628906 C 312.363281 271.8125 319.527344 266.628906 323.421875 268.992188 C 327.320312 271.355469 326.140625 280.179688 323.996094 284.1875 C 319.113281 293.300781 308.636719 293.894531 308.636719 293.894531 C 308.636719 293.894531 304.347656 284.167969 309.890625 275.628906 " fill-opacity="1" fill-rule="nonzero"/></g></g></g><g clip-path="url(#7db3848712)"><g clip-path="url(#72a3a8516e)"><g clip-path="url(#416a6fd9e4)"><path fill="#100f0d" d="M 327.414062 268.613281 L 327.710938 269.328125 L 327.78125 269.300781 C 327.921875 269.242188 328.285156 269.097656 328.828125 268.902344 C 331 268.128906 336.046875 266.585938 341.210938 266.65625 C 343.792969 266.691406 346.394531 267.125 348.691406 268.222656 C 350.988281 269.324219 352.988281 271.066406 354.441406 273.816406 C 354.871094 274.628906 355.191406 275.351562 355.414062 275.980469 C 355.851562 277.195312 355.894531 278.046875 355.753906 278.542969 C 355.683594 278.796875 355.578125 278.96875 355.429688 279.121094 C 355.28125 279.269531 355.078125 279.398438 354.792969 279.5 C 354.296875 279.679688 353.570312 279.75 352.675781 279.683594 C 351.109375 279.578125 349.058594 279.0625 346.808594 278.292969 C 340.054688 275.972656 331.492188 271.332031 327.429688 268.644531 L 326.546875 269.902344 C 326.546875 269.902344 326.820312 270.113281 327.300781 270.492188 C 328.984375 271.820312 333.21875 275.195312 337.148438 278.59375 C 339.117188 280.289062 341.007812 281.992188 342.457031 283.441406 C 343.179688 284.164062 343.796875 284.824219 344.246094 285.371094 C 344.472656 285.644531 344.65625 285.894531 344.792969 286.101562 C 344.929688 286.308594 345.015625 286.480469 345.046875 286.574219 L 345.0625 286.621094 L 345.066406 286.636719 L 345.261719 286.613281 L 345.070312 286.582031 L 345.066406 286.636719 L 345.261719 286.613281 L 345.070312 286.582031 L 345.484375 286.644531 L 345.167969 286.371094 C 345.109375 286.4375 345.074219 286.53125 345.070312 286.582031 L 345.484375 286.644531 L 345.167969 286.371094 L 345.429688 286.597656 L 345.308594 286.265625 C 345.289062 286.269531 345.226562 286.300781 345.167969 286.371094 L 345.429688 286.597656 L 345.308594 286.265625 L 345.347656 286.367188 L 345.316406 286.261719 L 345.308594 286.265625 L 345.347656 286.367188 L 345.316406 286.261719 L 345.292969 286.265625 C 344.949219 286.300781 344.460938 286.277344 343.882812 286.171875 C 341.851562 285.8125 338.75 284.492188 335.828125 282.191406 C 332.898438 279.890625 330.132812 276.628906 328.625 272.371094 C 328.261719 271.359375 327.972656 270.289062 327.765625 269.15625 L 327.011719 269.289062 L 327.671875 269.6875 L 328.070312 269.015625 L 327.414062 268.613281 L 327.710938 269.328125 L 327.414062 268.613281 L 326.753906 268.214844 L 326.207031 269.140625 L 326.257812 269.425781 C 326.480469 270.640625 326.792969 271.792969 327.179688 272.886719 C 329.046875 278.128906 332.652344 281.9375 336.230469 284.390625 C 338.023438 285.621094 339.8125 286.515625 341.40625 287.082031 C 342.199219 287.367188 342.945312 287.570312 343.625 287.691406 C 344.304688 287.8125 344.910156 287.855469 345.453125 287.800781 C 345.578125 287.789062 345.699219 287.765625 345.828125 287.71875 C 345.980469 287.667969 346.136719 287.578125 346.273438 287.445312 C 346.476562 287.246094 346.585938 286.949219 346.59375 286.707031 C 346.609375 286.460938 346.558594 286.253906 346.488281 286.058594 C 346.378906 285.75 346.207031 285.457031 345.992188 285.140625 C 345.585938 284.550781 345.007812 283.875 344.292969 283.125 C 341.789062 280.496094 337.601562 276.90625 334.019531 273.945312 C 330.441406 270.992188 327.484375 268.683594 327.480469 268.679688 L 327.011719 269.289062 L 326.59375 269.9375 C 329.792969 272.046875 335.53125 275.246094 341.160156 277.710938 C 343.972656 278.945312 346.757812 279.992188 349.199219 280.625 C 350.417969 280.941406 351.550781 281.152344 352.578125 281.226562 C 353.597656 281.296875 354.515625 281.238281 355.308594 280.957031 C 355.761719 280.796875 356.179688 280.554688 356.515625 280.21875 C 357.027344 279.710938 357.3125 278.996094 357.351562 278.199219 C 357.394531 277.402344 357.226562 276.503906 356.855469 275.46875 C 356.601562 274.75 356.246094 273.964844 355.792969 273.097656 C 354.191406 270.054688 351.902344 268.050781 349.339844 266.828125 C 345.496094 264.996094 341.082031 264.878906 337.214844 265.335938 C 333.347656 265.796875 330.007812 266.84375 328.308594 267.449219 C 327.558594 267.71875 327.125 267.898438 327.113281 267.902344 L 326.882812 268 L 326.753906 268.214844 L 327.414062 268.613281 " fill-opacity="1" fill-rule="nonzero"/></g></g></g><g clip-path="url(#43de397f44)"><g clip-path="url(#8099fbb801)"><g clip-path="url(#486f736822)"><path fill="#100f0d" d="M 325.4375 267.417969 L 326.203125 267.34375 C 326.195312 267.304688 325.800781 263.4375 324.175781 258.859375 C 323.066406 255.746094 321.386719 252.296875 318.828125 249.496094 C 316.277344 246.699219 312.800781 244.5625 308.246094 244.203125 C 305.992188 244.027344 304.367188 244.132812 303.175781 244.550781 C 302.738281 244.707031 302.355469 244.910156 302.035156 245.175781 C 301.558594 245.566406 301.242188 246.121094 301.15625 246.707031 C 301.0625 247.292969 301.164062 247.886719 301.375 248.484375 C 301.65625 249.273438 302.140625 250.082031 302.769531 250.9375 C 303.871094 252.425781 305.441406 254.046875 307.269531 255.703125 C 312.75 260.675781 320.546875 265.988281 324.75 268.328125 L 325.113281 267.652344 L 325.417969 266.945312 C 325.410156 266.941406 320.125 264.625 314.472656 262.425781 C 311.648438 261.324219 308.730469 260.257812 306.320312 259.519531 C 305.113281 259.152344 304.035156 258.867188 303.140625 258.699219 C 302.691406 258.617188 302.292969 258.5625 301.929688 258.546875 C 301.5625 258.535156 301.242188 258.550781 300.910156 258.664062 C 300.777344 258.710938 300.640625 258.777344 300.515625 258.878906 C 300.320312 259.027344 300.152344 259.285156 300.109375 259.550781 C 300.0625 259.816406 300.105469 260.058594 300.179688 260.261719 L 300.210938 260.335938 L 300.210938 260.339844 C 300.4375 260.898438 300.808594 261.480469 301.300781 262.09375 C 303.023438 264.214844 306.289062 266.71875 310.503906 268.316406 C 314.707031 269.910156 319.878906 270.5625 325.277344 268.828125 L 325.550781 268.738281 L 326.226562 267.597656 L 326.203125 267.34375 L 325.4375 267.417969 L 324.78125 267.015625 L 324.378906 267.695312 L 325.039062 268.089844 L 324.800781 267.355469 C 319.070312 269.199219 313.617188 268.148438 309.390625 266.183594 C 307.28125 265.199219 305.484375 263.984375 304.140625 262.808594 C 303.46875 262.226562 302.914062 261.648438 302.484375 261.121094 C 302.0625 260.597656 301.769531 260.117188 301.628906 259.761719 L 301.617188 259.738281 L 301.558594 259.757812 L 301.621094 259.746094 L 301.617188 259.738281 L 301.558594 259.757812 L 301.621094 259.746094 L 301.242188 259.796875 L 301.546875 260.011719 C 301.617188 259.914062 301.628906 259.773438 301.621094 259.746094 L 301.242188 259.796875 L 301.546875 260.011719 L 301.242188 259.796875 L 301.453125 260.105469 L 301.546875 260.011719 L 301.242188 259.796875 L 301.453125 260.105469 L 301.339844 259.933594 L 301.429688 260.117188 L 301.453125 260.105469 L 301.339844 259.933594 L 301.429688 260.117188 L 301.394531 260.050781 L 301.425781 260.121094 L 301.429688 260.117188 L 301.394531 260.050781 L 301.425781 260.121094 C 301.449219 260.109375 301.621094 260.078125 301.875 260.089844 C 302.359375 260.109375 303.128906 260.246094 304.050781 260.480469 C 307.304688 261.300781 312.523438 263.277344 316.894531 265.039062 C 319.082031 265.921875 321.0625 266.753906 322.496094 267.363281 C 323.210938 267.667969 323.792969 267.914062 324.191406 268.089844 C 324.59375 268.261719 324.8125 268.359375 324.8125 268.359375 L 325.480469 266.976562 C 322.390625 265.257812 317.128906 261.769531 312.441406 258.058594 C 310.09375 256.203125 307.890625 254.289062 306.167969 252.519531 C 305.308594 251.640625 304.570312 250.792969 303.996094 250.015625 C 303.421875 249.246094 303.019531 248.539062 302.820312 247.96875 C 302.714844 247.683594 302.664062 247.433594 302.65625 247.230469 C 302.644531 246.921875 302.703125 246.738281 302.835938 246.554688 C 302.972656 246.371094 303.226562 246.171875 303.691406 246.007812 C 304.527344 245.703125 306 245.566406 308.132812 245.738281 C 312.269531 246.078125 315.339844 247.964844 317.707031 250.539062 C 320.066406 253.113281 321.671875 256.382812 322.734375 259.371094 C 323.515625 261.566406 324.003906 263.609375 324.292969 265.09375 C 324.441406 265.835938 324.535156 266.441406 324.59375 266.855469 C 324.625 267.066406 324.644531 267.226562 324.660156 267.332031 L 324.671875 267.453125 L 324.675781 267.488281 L 325.4375 267.417969 L 324.78125 267.015625 L 325.4375 267.417969 " fill-opacity="1" fill-rule="nonzero"/></g></g></g><g clip-path="url(#99634a9c09)"><g clip-path="url(#96f1015bd2)"><g clip-path="url(#ae8542bd4e)"><path fill="#100f0d" d="M 312.132812 275.941406 L 312.878906 276.4375 C 313.605469 275.3125 314.84375 273.980469 316.296875 272.8125 C 317.746094 271.644531 319.410156 270.632812 320.96875 270.078125 C 321.820312 269.777344 322.632812 269.609375 323.351562 269.609375 C 324.070312 269.605469 324.683594 269.757812 325.207031 270.074219 C 325.5625 270.292969 325.867188 270.578125 326.132812 270.941406 C 326.398438 271.300781 326.625 271.742188 326.804688 272.246094 C 327.382812 273.855469 327.457031 276.121094 327.15625 278.324219 C 326.863281 280.527344 326.199219 282.679688 325.449219 284.074219 C 324.199219 286.414062 322.5625 288.152344 320.832031 289.464844 C 319.097656 290.773438 317.269531 291.644531 315.652344 292.21875 C 314.277344 292.707031 313.054688 292.984375 312.183594 293.136719 C 311.75 293.210938 311.402344 293.257812 311.167969 293.28125 C 311.046875 293.296875 310.957031 293.300781 310.902344 293.308594 L 310.835938 293.3125 L 310.820312 293.3125 L 310.878906 294.210938 L 311.691406 293.847656 L 311.6875 293.84375 C 311.671875 293.804688 311.574219 293.578125 311.441406 293.195312 C 311.035156 292.058594 310.28125 289.542969 310.195312 286.484375 C 310.109375 283.417969 310.675781 279.832031 312.875 276.4375 L 311.386719 275.449219 C 308.941406 279.214844 308.316406 283.203125 308.417969 286.523438 C 308.511719 289.847656 309.316406 292.53125 309.765625 293.792969 C 309.9375 294.277344 310.058594 294.550781 310.066406 294.566406 L 310.316406 295.140625 L 310.933594 295.105469 C 310.988281 295.101562 313.277344 294.96875 316.253906 293.910156 C 318.003906 293.289062 319.996094 292.34375 321.90625 290.902344 C 323.8125 289.460938 325.632812 287.519531 327.019531 284.933594 C 327.902344 283.269531 328.59375 280.976562 328.917969 278.578125 C 329.238281 276.183594 329.199219 273.695312 328.480469 271.648438 C 328.25 271.007812 327.953125 270.410156 327.5625 269.878906 C 327.175781 269.347656 326.691406 268.886719 326.117188 268.539062 C 325.269531 268.023438 324.304688 267.808594 323.332031 267.816406 C 322.355469 267.820312 321.359375 268.035156 320.367188 268.386719 C 318.554688 269.035156 316.753906 270.140625 315.179688 271.410156 C 313.605469 272.683594 312.261719 274.105469 311.386719 275.449219 L 312.132812 275.941406 " fill-opacity="1" fill-rule="nonzero"/></g></g></g><g clip-path="url(#800e53bd58)"><g clip-path="url(#74a0bbbf53)"><g clip-path="url(#e26b2976cb)"><path fill="#100f0d" d="M 325.78125 261.101562 L 326.328125 261.433594 C 326.871094 260.507812 328.0625 259.542969 329.253906 259.125 C 329.714844 258.960938 330.171875 258.875 330.585938 258.882812 C 330.996094 258.890625 331.359375 258.984375 331.671875 259.167969 C 332.097656 259.429688 332.425781 259.875 332.640625 260.476562 C 332.882812 261.148438 332.957031 261.996094 332.871094 262.816406 C 332.789062 263.636719 332.542969 264.433594 332.203125 265 C 331.777344 265.714844 331.144531 266.210938 330.425781 266.46875 C 329.492188 266.796875 328.433594 266.722656 327.515625 266.167969 C 326.804688 265.734375 326.308594 265.09375 326.046875 264.363281 C 325.714844 263.421875 325.78125 262.355469 326.328125 261.433594 L 325.234375 260.769531 C 324.488281 262.03125 324.390625 263.503906 324.847656 264.789062 C 325.203125 265.785156 325.894531 266.675781 326.863281 267.265625 C 328.117188 268.027344 329.582031 268.128906 330.855469 267.679688 C 331.839844 267.328125 332.71875 266.640625 333.296875 265.664062 C 333.753906 264.890625 334.035156 263.941406 334.136719 262.957031 C 334.238281 261.972656 334.160156 260.953125 333.835938 260.050781 C 333.554688 259.25 333.066406 258.527344 332.320312 258.070312 C 331.789062 257.75 331.191406 257.605469 330.597656 257.597656 C 330 257.589844 329.402344 257.710938 328.824219 257.917969 C 327.34375 258.449219 325.984375 259.523438 325.234375 260.769531 L 325.78125 261.101562 " fill-opacity="1" fill-rule="nonzero"/></g></g></g><g clip-path="url(#fe15a6b451)"><g clip-path="url(#05e338a723)"><g clip-path="url(#35f4e3a379)"><path fill="#100f0d" d="M 326.097656 251.03125 L 326.113281 251 L 326.097656 251.03125 L 326.113281 251 L 326.097656 251.03125 C 326.128906 251.050781 326.683594 251.375 327.347656 252.050781 C 328.015625 252.726562 328.792969 253.75 329.300781 255.179688 C 329.609375 256.046875 329.820312 257.0625 329.847656 258.25 L 331.117188 258.230469 C 331.089844 256.90625 330.851562 255.746094 330.5 254.753906 C 329.894531 253.058594 328.960938 251.855469 328.171875 251.078125 C 327.386719 250.292969 326.746094 249.933594 326.707031 249.910156 L 326.097656 251.03125 " fill-opacity="1" fill-rule="nonzero"/></g></g></g><g clip-path="url(#8dc82565b5)"><g clip-path="url(#454bcac773)"><g clip-path="url(#2c630dd34f)"><path fill="#100f0d" d="M 333.328125 260.363281 C 333.746094 260.152344 334.152344 259.976562 334.550781 259.835938 C 336.550781 259.125 338.261719 259.253906 339.484375 259.558594 C 340.097656 259.710938 340.582031 259.90625 340.910156 260.0625 C 341.078125 260.140625 341.203125 260.207031 341.28125 260.253906 L 341.371094 260.304688 L 341.390625 260.316406 L 342.082031 259.246094 C 342.039062 259.214844 341.195312 258.664062 339.78125 258.3125 C 338.375 257.960938 336.382812 257.820312 334.117188 258.625 C 333.671875 258.785156 333.210938 258.980469 332.746094 259.21875 L 333.328125 260.363281 " fill-opacity="1" fill-rule="nonzero"/></g></g></g><g clip-path="url(#47ad21ad5f)"><g clip-path="url(#bb9151693c)"><g clip-path="url(#27f9688d4f)"><path fill="#100f0d" d="M 325.457031 267.382812 C 325.875 266.683594 326.664062 266.390625 327.222656 266.730469 C 327.777344 267.070312 327.894531 267.910156 327.480469 268.609375 C 327.066406 269.304688 326.28125 269.597656 325.722656 269.257812 C 325.160156 268.917969 325.042969 268.078125 325.457031 267.382812 " fill-opacity="1" fill-rule="nonzero"/></g></g></g><g clip-path="url(#843fc92a6b)"><g clip-path="url(#586442b217)"><g clip-path="url(#e12ea890d8)"><path fill="#100f0d" d="M 315.714844 271.878906 C 315.753906 271.964844 316.421875 273.398438 318.277344 275.039062 C 320.128906 276.675781 323.167969 278.511719 327.867188 279.410156 L 328.1875 277.648438 C 323.785156 276.800781 321.070312 275.125 319.445312 273.691406 C 318.636719 272.976562 318.09375 272.3125 317.765625 271.84375 C 317.597656 271.609375 317.484375 271.421875 317.414062 271.296875 C 317.382812 271.238281 317.355469 271.191406 317.34375 271.164062 L 317.328125 271.136719 L 317.328125 271.132812 L 316.886719 271.339844 L 317.328125 271.136719 L 317.328125 271.132812 L 316.886719 271.339844 L 317.328125 271.136719 L 315.714844 271.878906 " fill-opacity="1" fill-rule="nonzero"/></g></g></g><g clip-path="url(#5a8b0443e7)"><g clip-path="url(#b293d2922b)"><g clip-path="url(#0bffd898b5)"><path fill="#100f0d" d="M 308.34375 284.292969 C 308.382812 284.382812 309.054688 285.8125 310.90625 287.453125 C 312.761719 289.089844 315.796875 290.925781 320.496094 291.820312 L 320.820312 290.058594 C 316.417969 289.214844 313.703125 287.542969 312.078125 286.105469 C 311.265625 285.386719 310.726562 284.730469 310.394531 284.257812 C 310.230469 284.023438 310.113281 283.835938 310.046875 283.714844 C 310.011719 283.652344 309.988281 283.605469 309.972656 283.578125 L 309.957031 283.550781 L 309.957031 283.546875 L 309.519531 283.753906 L 309.960938 283.554688 L 309.957031 283.546875 L 309.519531 283.753906 L 309.960938 283.554688 L 308.34375 284.292969 " fill-opacity="1" fill-rule="nonzero"/></g></g></g><g clip-path="url(#8fd6d09afc)"><g clip-path="url(#c51d961347)"><g clip-path="url(#f96be93127)"><path fill="#100f0d" d="M 310.453125 277.257812 C 310.511719 277.390625 311.351562 279.171875 313.660156 281.210938 C 315.960938 283.25 319.730469 285.523438 325.535156 286.632812 L 326.019531 283.984375 C 320.660156 282.960938 317.375 280.925781 315.410156 279.195312 C 314.429688 278.328125 313.785156 277.535156 313.386719 276.972656 C 313.191406 276.691406 313.054688 276.46875 312.96875 276.324219 C 312.929688 276.25 312.902344 276.199219 312.886719 276.167969 L 312.875 276.140625 L 312.871094 276.136719 L 312.113281 276.492188 L 312.875 276.144531 L 312.871094 276.136719 L 312.113281 276.492188 L 312.875 276.144531 L 310.453125 277.257812 " fill-opacity="1" fill-rule="nonzero"/></g></g></g><g clip-path="url(#86e8a4aa21)"><g clip-path="url(#060476a15b)"><g clip-path="url(#a60e692014)"><path fill="#100f0d" d="M 303.632812 301.554688 C 303.828125 303.238281 303.769531 304.914062 303.5 306.542969 C 303.441406 306.898438 303.675781 307.234375 304.027344 307.292969 C 304.378906 307.355469 304.710938 307.121094 304.769531 306.765625 C 305.0625 305.019531 305.121094 303.222656 304.910156 301.410156 C 304.871094 301.054688 304.550781 300.796875 304.195312 300.835938 C 303.84375 300.875 303.589844 301.195312 303.632812 301.554688 Z M 302.046875 311.332031 C 301.371094 312.847656 300.507812 314.296875 299.5 315.648438 C 299.285156 315.9375 299.34375 316.34375 299.628906 316.558594 C 299.914062 316.777344 300.316406 316.722656 300.53125 316.4375 C 301.597656 315.011719 302.503906 313.480469 303.222656 311.867188 C 303.367188 311.542969 303.222656 311.15625 302.898438 311.007812 C 302.574219 310.859375 302.191406 311.003906 302.046875 311.332031 Z M 296.097656 319.34375 C 294.84375 320.457031 293.476562 321.445312 292.03125 322.285156 C 291.722656 322.460938 291.617188 322.859375 291.796875 323.171875 C 291.976562 323.480469 292.371094 323.585938 292.679688 323.410156 C 294.199219 322.53125 295.632812 321.488281 296.953125 320.320312 C 297.21875 320.085938 297.242188 319.671875 297.007812 319.40625 C 296.773438 319.132812 296.363281 319.109375 296.097656 319.34375 Z M 287.460938 324.332031 C 285.867188 324.847656 284.222656 325.183594 282.570312 325.308594 C 282.214844 325.335938 281.953125 325.644531 281.980469 326.003906 C 282.011719 326.359375 282.320312 326.628906 282.675781 326.601562 C 284.433594 326.46875 286.175781 326.113281 287.863281 325.566406 C 288.199219 325.457031 288.386719 325.09375 288.273438 324.75 C 288.164062 324.410156 287.800781 324.222656 287.460938 324.332031 Z M 277.632812 325.015625 C 276.042969 324.648438 274.566406 323.921875 273.230469 322.933594 C 272.941406 322.71875 272.539062 322.777344 272.332031 323.066406 C 272.121094 323.355469 272.183594 323.761719 272.46875 323.976562 C 273.929688 325.058594 275.566406 325.871094 277.351562 326.28125 C 277.703125 326.363281 278.046875 326.144531 278.121094 325.792969 C 278.199219 325.445312 277.980469 325.097656 277.632812 325.015625 Z M 269.75 319.375 C 268.75 318.011719 267.921875 316.515625 267.289062 314.984375 C 267.152344 314.652344 266.773438 314.496094 266.445312 314.632812 C 266.117188 314.765625 265.960938 315.144531 266.097656 315.480469 C 266.769531 317.101562 267.648438 318.691406 268.714844 320.140625 C 268.925781 320.429688 269.328125 320.492188 269.617188 320.28125 C 269.902344 320.070312 269.960938 319.664062 269.75 319.375 Z M 265.972656 310.148438 C 265.738281 308.296875 265.875 306.613281 266.382812 305.355469 C 266.515625 305.023438 266.351562 304.644531 266.023438 304.507812 C 265.691406 304.371094 265.316406 304.53125 265.183594 304.863281 C 264.570312 306.410156 264.441406 308.296875 264.691406 310.304688 C 264.738281 310.660156 265.0625 310.914062 265.414062 310.875 C 265.765625 310.828125 266.015625 310.503906 265.972656 310.148438 Z M 269.707031 302.753906 C 270.421875 302.671875 271.265625 302.730469 272.246094 302.964844 C 273.0625 303.160156 273.769531 303.402344 274.375 303.683594 C 274.699219 303.835938 275.082031 303.695312 275.230469 303.367188 C 275.378906 303.042969 275.234375 302.660156 274.910156 302.507812 C 274.210938 302.179688 273.421875 301.914062 272.535156 301.699219 C 271.4375 301.441406 270.449219 301.363281 269.558594 301.460938 C 269.207031 301.503906 268.953125 301.824219 268.992188 302.179688 C 269.035156 302.535156 269.355469 302.792969 269.707031 302.753906 Z M 277.484375 306.953125 C 277.914062 308.277344 277.839844 309.898438 277.347656 311.691406 C 277.253906 312.035156 277.457031 312.394531 277.800781 312.492188 C 278.140625 312.589844 278.496094 312.390625 278.59375 312.042969 C 279.121094 310.097656 279.246094 308.226562 278.710938 306.5625 C 278.601562 306.21875 278.238281 306.03125 277.898438 306.140625 C 277.558594 306.246094 277.375 306.613281 277.484375 306.953125 Z M 275.417969 316.328125 C 274.644531 317.769531 273.71875 319.226562 272.714844 320.648438 C 272.507812 320.941406 272.578125 321.347656 272.867188 321.554688 C 273.160156 321.765625 273.558594 321.699219 273.765625 321.40625 C 274.796875 319.949219 275.746094 318.449219 276.550781 316.957031 C 276.722656 316.640625 276.601562 316.246094 276.292969 316.074219 C 275.976562 315.902344 275.585938 316.015625 275.417969 316.328125 Z M 269.582031 324.691406 C 268.417969 326.066406 267.238281 327.347656 266.128906 328.46875 C 265.875 328.71875 265.875 329.128906 266.128906 329.386719 C 266.378906 329.640625 266.789062 329.640625 267.039062 329.386719 C 268.175781 328.242188 269.378906 326.9375 270.5625 325.539062 C 270.792969 325.265625 270.757812 324.855469 270.488281 324.621094 C 270.214844 324.386719 269.808594 324.417969 269.582031 324.691406 Z M 262.351562 331.859375 C 261.921875 332.183594 261.542969 332.441406 261.242188 332.609375 C 260.175781 333.21875 259.085938 333.777344 257.976562 334.285156 C 257.648438 334.433594 257.511719 334.816406 257.660156 335.144531 C 257.804688 335.472656 258.191406 335.617188 258.511719 335.46875 C 259.65625 334.945312 260.785156 334.367188 261.882812 333.742188 C 262.253906 333.527344 262.667969 333.246094 263.128906 332.898438 C 263.414062 332.683594 263.46875 332.273438 263.253906 331.988281 C 263.039062 331.703125 262.636719 331.644531 262.351562 331.859375 Z M 253.242188 336.105469 C 251.621094 336.617188 249.976562 337.019531 248.324219 337.320312 C 247.972656 337.382812 247.742188 337.71875 247.808594 338.070312 C 247.871094 338.425781 248.207031 338.660156 248.558594 338.597656 C 250.261719 338.289062 251.960938 337.871094 253.636719 337.34375 C 253.972656 337.238281 254.160156 336.875 254.054688 336.53125 C 253.945312 336.1875 253.582031 335.996094 253.242188 336.105469 Z M 243.292969 337.878906 C 241.589844 337.953125 239.898438 337.902344 238.238281 337.730469 C 237.882812 337.691406 237.566406 337.949219 237.53125 338.308594 C 237.5 338.664062 237.757812 338.984375 238.113281 339.019531 C 239.835938 339.203125 241.589844 339.25 243.355469 339.175781 C 243.710938 339.160156 243.984375 338.859375 243.96875 338.5 C 243.949219 338.140625 243.648438 337.863281 243.292969 337.878906 Z M 233.269531 336.800781 C 231.636719 336.351562 230.054688 335.765625 228.546875 335.035156 C 228.222656 334.878906 227.839844 335.015625 227.6875 335.339844 C 227.535156 335.664062 227.671875 336.050781 227.996094 336.203125 C 229.578125 336.96875 231.234375 337.585938 232.9375 338.054688 C 233.285156 338.148438 233.636719 337.945312 233.726562 337.597656 C 233.820312 337.253906 233.613281 336.894531 233.269531 336.800781 Z M 224.242188 332.410156 C 222.917969 331.40625 221.679688 330.265625 220.546875 328.972656 C 220.3125 328.703125 219.90625 328.675781 219.636719 328.914062 C 219.371094 329.152344 219.347656 329.558594 219.585938 329.828125 C 220.777344 331.1875 222.078125 332.394531 223.472656 333.445312 C 223.757812 333.664062 224.160156 333.605469 224.375 333.320312 C 224.585938 333.03125 224.527344 332.625 224.242188 332.410156 Z M 217.570312 324.859375 C 216.628906 323.324219 215.875 321.8125 215.285156 320.320312 C 215.15625 319.988281 214.777344 319.824219 214.449219 319.953125 C 214.117188 320.085938 213.957031 320.460938 214.089844 320.796875 C 214.707031 322.359375 215.5 323.9375 216.472656 325.539062 C 216.660156 325.84375 217.054688 325.941406 217.359375 325.753906 C 217.664062 325.566406 217.757812 325.167969 217.570312 324.859375 Z M 213.9375 315.464844 C 213.667969 313.765625 213.617188 312.097656 213.761719 310.449219 C 213.792969 310.089844 213.53125 309.773438 213.175781 309.738281 C 212.824219 309.707031 212.511719 309.96875 212.476562 310.324219 C 212.320312 312.074219 212.378906 313.855469 212.664062 315.660156 C 212.722656 316.015625 213.050781 316.257812 213.402344 316.203125 C 213.757812 316.148438 213.992188 315.816406 213.9375 315.464844 Z M 214.796875 305.535156 C 215.316406 303.984375 216.003906 302.449219 216.855469 300.929688 C 217.027344 300.617188 216.921875 300.222656 216.609375 300.046875 C 216.300781 299.867188 215.90625 299.976562 215.730469 300.289062 C 214.84375 301.871094 214.121094 303.480469 213.574219 305.117188 C 213.464844 305.457031 213.644531 305.824219 213.984375 305.941406 C 214.320312 306.058594 214.6875 305.875 214.796875 305.535156 Z M 219.652344 296.699219 C 220.648438 295.398438 221.753906 294.109375 222.957031 292.828125 C 223.203125 292.570312 223.191406 292.15625 222.933594 291.910156 C 222.675781 291.664062 222.269531 291.671875 222.023438 291.929688 C 220.789062 293.238281 219.652344 294.5625 218.628906 295.90625 C 218.414062 296.1875 218.464844 296.597656 218.75 296.816406 C 219.03125 297.035156 219.4375 296.984375 219.652344 296.699219 Z M 226.617188 289.261719 C 227.214844 288.71875 227.832031 288.179688 228.464844 287.640625 C 228.738281 287.410156 228.765625 287 228.539062 286.726562 C 228.308594 286.453125 227.898438 286.414062 227.628906 286.644531 C 226.988281 287.191406 226.359375 287.742188 225.75 288.292969 C 225.484375 288.53125 225.464844 288.941406 225.703125 289.210938 C 225.941406 289.480469 226.351562 289.5 226.617188 289.261719 " fill-opacity="1" fill-rule="nonzero"/></g></g></g><g fill="#000000" fill-opacity="1"><g transform="translate(149.958063, 243.799419)"><g/></g></g><g fill="#000000" fill-opacity="1"><g transform="translate(170.162438, 243.799419)"><g><path d="M 18.121094 0.625 C 28.09375 0.625 36.292969 -3.34375 36.292969 -10.964844 C 36.292969 -23.863281 13.785156 -23.34375 13.785156 -31.175781 C 13.785156 -34.152344 16.761719 -36.1875 20.835938 -36.1875 C 25.640625 -36.1875 28.355469 -33.890625 28.355469 -31.175781 C 28.355469 -29.402344 27.3125 -27.9375 25.328125 -27.9375 C 23.082031 -27.9375 21.566406 -29.453125 22.039062 -31.332031 L 21.410156 -31.332031 C 21.203125 -30.96875 20.992188 -30.289062 20.992188 -29.816406 C 20.992188 -27.675781 23.34375 -25.746094 26.320312 -25.746094 C 29.503906 -25.746094 31.90625 -27.625 31.90625 -30.445312 C 31.90625 -34.101562 27.46875 -37.179688 19.6875 -37.179688 C 13.316406 -37.179688 8.042969 -34.78125 8.042969 -30.394531 C 8.042969 -20.679688 29.765625 -22.039062 29.765625 -10.546875 C 29.765625 -5.585938 25.484375 -0.46875 17.390625 -0.46875 C 9.921875 -0.46875 4.753906 -4.019531 4.753906 -9.554688 C 4.753906 -13.628906 7.625 -16.554688 11.699219 -16.554688 C 15.613281 -16.554688 18.589844 -13.941406 18.589844 -10.132812 C 18.589844 -7.257812 16.917969 -5.066406 14.152344 -5.066406 C 11.75 -5.066406 10.339844 -6.632812 10.339844 -8.773438 C 10.339844 -10.496094 11.4375 -12.375 13.839844 -12.011719 L 13.890625 -12.429688 C 13.785156 -12.53125 12.949219 -12.898438 12.117188 -12.898438 C 9.554688 -12.898438 7.988281 -10.757812 7.988281 -8.929688 C 7.988281 -6.632812 10.390625 -4.074219 14.101562 -4.074219 C 18.484375 -4.074219 21.671875 -7.257812 21.671875 -11.699219 C 21.671875 -16.917969 17.179688 -20.574219 11.382812 -20.574219 C 5.535156 -20.574219 1.042969 -16.816406 1.042969 -11.332031 C 1.042969 -4.4375 7.625 0.625 18.121094 0.625 Z M 18.121094 0.625 "/></g></g></g><g fill="#000000" fill-opacity="1"><g transform="translate(208.074303, 243.799419)"><g><path d="M 1.722656 0 L 9.921875 0 L 9.921875 -0.625 C 9.085938 -2.089844 8.5625 -6.371094 8.5625 -13.265625 L 8.5625 -17.808594 C 8.5625 -22.714844 12.480469 -26.527344 17.078125 -26.527344 C 22.246094 -26.527344 24.855469 -23.238281 24.855469 -17.910156 L 24.855469 -13.265625 C 24.855469 -6.371094 24.335938 -2.089844 23.5 -0.625 L 23.5 0 L 31.699219 0 L 31.699219 -0.625 C 30.863281 -2.089844 30.339844 -6.371094 30.339844 -13.265625 L 30.339844 -17.492188 C 30.339844 -24.542969 26.265625 -29.347656 19.113281 -29.347656 C 14.515625 -29.347656 10.707031 -26.894531 9.085938 -22.925781 L 8.5625 -22.925781 L 8.5625 -38.644531 L 7.988281 -38.644531 C 6.421875 -37.339844 3.917969 -36.710938 1.617188 -36.554688 L 1.617188 -36.03125 C 2.402344 -35.144531 3.132812 -33.003906 3.132812 -27.050781 L 3.132812 -13.265625 C 3.132812 -6.371094 2.609375 -2.089844 1.722656 -0.625 Z M 1.722656 0 "/></g></g></g><g fill="#000000" fill-opacity="1"><g transform="translate(241.33857, 243.799419)"><g><path d="M 16.816406 0.625 C 25.640625 0.625 32.21875 -5.640625 32.21875 -14.359375 C 32.21875 -23.03125 25.640625 -29.347656 16.816406 -29.347656 C 7.988281 -29.347656 1.359375 -23.03125 1.359375 -14.359375 C 1.359375 -5.640625 7.988281 0.625 16.816406 0.625 Z M 16.816406 -0.523438 C 11.175781 -0.523438 6.894531 -5.902344 6.894531 -14.359375 C 6.894531 -22.820312 11.175781 -28.199219 16.816406 -28.199219 C 22.457031 -28.199219 26.738281 -22.820312 26.738281 -14.359375 C 26.738281 -5.902344 22.457031 -0.523438 16.816406 -0.523438 Z M 16.816406 -0.523438 "/></g></g></g><g fill="#000000" fill-opacity="1"><g transform="translate(274.916157, 243.799419)"><g><path d="M 1.722656 11.957031 L 9.972656 11.957031 L 9.972656 11.332031 C 9.085938 9.871094 8.5625 5.640625 8.5625 -1.199219 L 8.5625 -7.207031 L 9.085938 -7.207031 C 11.019531 -2.246094 15.300781 0.625 20.730469 0.625 C 28.773438 0.625 34.152344 -6.214844 34.152344 -14.359375 C 34.152344 -22.457031 28.773438 -29.347656 20.730469 -29.347656 C 15.300781 -29.347656 11.125 -26.476562 9.085938 -21.515625 L 8.5625 -21.515625 L 8.5625 -29.402344 L 8.042969 -29.402344 C 6.476562 -28.09375 3.917969 -27.46875 1.617188 -27.3125 L 1.617188 -26.789062 C 2.351562 -25.953125 3.027344 -23.917969 3.132812 -18.539062 L 3.132812 -1.304688 C 3.132812 5.535156 2.609375 9.871094 1.722656 11.332031 Z M 18.695312 -1.671875 C 13.054688 -1.671875 8.824219 -6.839844 8.824219 -14.359375 C 8.824219 -21.828125 13.054688 -27.050781 18.695312 -27.050781 C 24.28125 -27.050781 28.566406 -21.828125 28.566406 -14.359375 C 28.566406 -6.839844 24.28125 -1.671875 18.695312 -1.671875 Z M 18.695312 -1.671875 "/></g></g></g><g fill="#000000" fill-opacity="1"><g transform="translate(8.78871, 200.187565)"><g/></g></g><g fill="#000000" fill-opacity="1"><g transform="translate(28.993085, 200.187565)"><g><path d="M 21.148438 0.625 C 30.808594 0.625 36.503906 -5.222656 36.503906 -12.792969 C 36.503906 -18.695312 31.644531 -23.550781 25.535156 -23.550781 C 19.949219 -23.550781 15.980469 -19.269531 15.980469 -14.515625 C 15.980469 -9.609375 19.53125 -5.902344 23.917969 -5.902344 C 27.207031 -5.902344 29.296875 -8.304688 29.296875 -10.914062 C 29.296875 -12.949219 27.832031 -14.882812 25.328125 -14.882812 C 24.492188 -14.882812 23.65625 -14.515625 23.550781 -14.414062 L 23.605469 -13.941406 C 25.953125 -14.359375 27.363281 -12.742188 27.363281 -10.863281 C 27.363281 -8.773438 25.953125 -6.945312 23.605469 -6.945312 C 20.886719 -6.945312 18.851562 -9.503906 18.851562 -12.375 C 18.851562 -15.613281 21.464844 -18.644531 25.117188 -18.644531 C 29.402344 -18.644531 32.585938 -14.832031 32.585938 -10.546875 C 32.585938 -4.492188 28.09375 -0.46875 22.140625 -0.46875 C 13.890625 -0.46875 7.832031 -7.46875 7.832031 -17.441406 C 7.832031 -27.730469 13.160156 -36.085938 21.671875 -36.085938 C 26.007812 -36.085938 29.921875 -32.792969 31.019531 -28.25 L 31.488281 -28.25 L 32.273438 -33.996094 C 29.296875 -35.929688 25.171875 -37.179688 20.417969 -37.179688 C 8.878906 -37.179688 1.359375 -28.878906 1.359375 -18.277344 C 1.359375 -7.675781 9.347656 0.625 21.148438 0.625 Z M 21.148438 0.625 "/></g></g></g><g fill="#000000" fill-opacity="1"><g transform="translate(66.852733, 200.187565)"><g><path d="M 16.816406 0.625 C 25.640625 0.625 32.21875 -5.640625 32.21875 -14.359375 C 32.21875 -23.03125 25.640625 -29.347656 16.816406 -29.347656 C 7.988281 -29.347656 1.359375 -23.03125 1.359375 -14.359375 C 1.359375 -5.640625 7.988281 0.625 16.816406 0.625 Z M 16.816406 -0.523438 C 11.175781 -0.523438 6.894531 -5.902344 6.894531 -14.359375 C 6.894531 -22.820312 11.175781 -28.199219 16.816406 -28.199219 C 22.457031 -28.199219 26.738281 -22.820312 26.738281 -14.359375 C 26.738281 -5.902344 22.457031 -0.523438 16.816406 -0.523438 Z M 16.816406 -0.523438 "/></g></g></g><g fill="#000000" fill-opacity="1"><g transform="translate(100.43032, 200.187565)"><g><path d="M 4.175781 0 L 12.375 0 L 12.375 -0.625 C 11.488281 -2.089844 10.964844 -6.371094 10.964844 -13.265625 L 10.964844 -27.625 L 18.015625 -27.625 L 18.015625 -28.722656 L 14.675781 -28.722656 C 8.460938 -28.722656 4.230469 -31.75 4.230469 -36.03125 C 4.230469 -39.324219 6.371094 -41.308594 9.453125 -41.308594 C 12.324219 -41.308594 14.464844 -39.582031 14.464844 -36.867188 C 14.464844 -34.832031 13.265625 -33.316406 11.226562 -33.316406 C 9.453125 -33.316406 7.78125 -34.9375 8.25 -37.339844 L 7.519531 -37.441406 C 7.207031 -36.972656 6.996094 -36.1875 6.996094 -35.613281 C 6.996094 -33.839844 8.667969 -31.90625 11.488281 -31.90625 C 14.464844 -31.90625 17.335938 -34.152344 17.335938 -37.652344 C 17.335938 -41.933594 13.839844 -45.015625 9.035156 -45.015625 C 4.175781 -45.015625 0.574219 -41.933594 0.574219 -37.179688 C 0.574219 -33.578125 3.289062 -30.339844 7.625 -29.242188 L 7.625 -28.722656 L -1.042969 -28.722656 L -1.042969 -27.625 L 5.535156 -27.625 L 5.535156 -13.265625 C 5.535156 -6.371094 5.011719 -2.089844 4.175781 -0.625 Z M 4.175781 0 "/></g></g></g><g fill="#000000" fill-opacity="1"><g transform="translate(117.193001, 200.187565)"><g><path d="M 4.175781 0 L 12.375 0 L 12.375 -0.625 C 11.488281 -2.089844 10.964844 -6.371094 10.964844 -13.265625 L 10.964844 -27.625 L 18.015625 -27.625 L 18.015625 -28.722656 L 14.675781 -28.722656 C 8.460938 -28.722656 4.230469 -31.75 4.230469 -36.03125 C 4.230469 -39.324219 6.371094 -41.308594 9.453125 -41.308594 C 12.324219 -41.308594 14.464844 -39.582031 14.464844 -36.867188 C 14.464844 -34.832031 13.265625 -33.316406 11.226562 -33.316406 C 9.453125 -33.316406 7.78125 -34.9375 8.25 -37.339844 L 7.519531 -37.441406 C 7.207031 -36.972656 6.996094 -36.1875 6.996094 -35.613281 C 6.996094 -33.839844 8.667969 -31.90625 11.488281 -31.90625 C 14.464844 -31.90625 17.335938 -34.152344 17.335938 -37.652344 C 17.335938 -41.933594 13.839844 -45.015625 9.035156 -45.015625 C 4.175781 -45.015625 0.574219 -41.933594 0.574219 -37.179688 C 0.574219 -33.578125 3.289062 -30.339844 7.625 -29.242188 L 7.625 -28.722656 L -1.042969 -28.722656 L -1.042969 -27.625 L 5.535156 -27.625 L 5.535156 -13.265625 C 5.535156 -6.371094 5.011719 -2.089844 4.175781 -0.625 Z M 4.175781 0 "/></g></g></g><g fill="#000000" fill-opacity="1"><g transform="translate(133.955681, 200.187565)"><g><path d="M 18.957031 0.625 C 26.058594 0.625 30.707031 -3.132812 30.707031 -7.886719 C 30.707031 -11.226562 28.410156 -14.046875 24.699219 -14.046875 C 20.941406 -14.046875 19.007812 -11.488281 19.007812 -8.824219 C 19.007812 -8.148438 19.269531 -6.996094 19.738281 -6.476562 L 20.3125 -6.632812 C 19.582031 -8.511719 21.046875 -10.601562 23.707031 -10.601562 C 25.847656 -10.601562 27.519531 -9.035156 27.519531 -6.421875 C 27.519531 -3.082031 24.804688 -0.523438 20.054688 -0.523438 C 12.21875 -0.523438 6.894531 -6.683594 6.894531 -14.777344 L 6.894531 -15.5625 C 18.851562 -13.890625 30.132812 -15.300781 30.132812 -21.671875 C 30.132812 -25.691406 26.320312 -29.347656 17.808594 -29.347656 C 8.042969 -29.347656 1.359375 -23.03125 1.359375 -14.359375 C 1.359375 -5.328125 9.453125 0.625 18.957031 0.625 Z M 6.945312 -16.5 C 7.570312 -23.449219 12.117188 -28.25 18.070312 -28.25 C 23.605469 -28.25 25.691406 -25.273438 25.691406 -22.140625 C 25.691406 -17.128906 17.285156 -15.40625 6.945312 -16.5 Z M 6.945312 -16.5 "/></g></g></g><g fill="#000000" fill-opacity="1"><g transform="translate(165.966661, 200.187565)"><g><path d="M 18.957031 0.625 C 26.058594 0.625 30.707031 -3.132812 30.707031 -7.886719 C 30.707031 -11.226562 28.410156 -14.046875 24.699219 -14.046875 C 20.941406 -14.046875 19.007812 -11.488281 19.007812 -8.824219 C 19.007812 -8.148438 19.269531 -6.996094 19.738281 -6.476562 L 20.3125 -6.632812 C 19.582031 -8.511719 21.046875 -10.601562 23.707031 -10.601562 C 25.847656 -10.601562 27.519531 -9.035156 27.519531 -6.421875 C 27.519531 -3.082031 24.804688 -0.523438 20.054688 -0.523438 C 12.21875 -0.523438 6.894531 -6.683594 6.894531 -14.777344 L 6.894531 -15.5625 C 18.851562 -13.890625 30.132812 -15.300781 30.132812 -21.671875 C 30.132812 -25.691406 26.320312 -29.347656 17.808594 -29.347656 C 8.042969 -29.347656 1.359375 -23.03125 1.359375 -14.359375 C 1.359375 -5.328125 9.453125 0.625 18.957031 0.625 Z M 6.945312 -16.5 C 7.570312 -23.449219 12.117188 -28.25 18.070312 -28.25 C 23.605469 -28.25 25.691406 -25.273438 25.691406 -22.140625 C 25.691406 -17.128906 17.285156 -15.40625 6.945312 -16.5 Z M 6.945312 -16.5 "/></g></g></g><g fill="#000000" fill-opacity="1"><g transform="translate(51.07599, 120.643236)"><g><path d="M 10.15625 -11.96875 C 10.519531 -11.769531 10.703125 -11.460938 10.703125 -11.046875 C 10.703125 -10.796875 10.613281 -10.550781 10.4375 -10.3125 C 10.25 -10.0625 10.003906 -9.9375 9.703125 -9.9375 C 9.492188 -9.9375 9.289062 -9.988281 9.09375 -10.09375 C 8.507812 -10.375 7.875 -10.515625 7.1875 -10.515625 C 6.34375 -10.515625 5.609375 -10.335938 4.984375 -9.984375 C 4.367188 -9.628906 3.890625 -9.128906 3.546875 -8.484375 C 3.210938 -7.847656 3.046875 -7.113281 3.046875 -6.28125 C 3.046875 -4.875 3.425781 -3.800781 4.1875 -3.0625 C 4.957031 -2.332031 5.957031 -1.96875 7.1875 -1.96875 C 7.914062 -1.96875 8.550781 -2.109375 9.09375 -2.390625 C 9.3125 -2.484375 9.503906 -2.53125 9.671875 -2.53125 C 9.984375 -2.53125 10.242188 -2.398438 10.453125 -2.140625 C 10.640625 -1.910156 10.734375 -1.664062 10.734375 -1.40625 C 10.734375 -1.207031 10.679688 -1.03125 10.578125 -0.875 C 10.484375 -0.71875 10.347656 -0.597656 10.171875 -0.515625 C 9.234375 -0.0546875 8.238281 0.171875 7.1875 0.171875 C 6.007812 0.171875 4.929688 -0.0703125 3.953125 -0.5625 C 2.972656 -1.0625 2.1875 -1.796875 1.59375 -2.765625 C 1.007812 -3.734375 0.71875 -4.90625 0.71875 -6.28125 C 0.71875 -7.507812 0.992188 -8.609375 1.546875 -9.578125 C 2.109375 -10.546875 2.878906 -11.300781 3.859375 -11.84375 C 4.847656 -12.394531 5.957031 -12.671875 7.1875 -12.671875 C 8.25 -12.671875 9.238281 -12.4375 10.15625 -11.96875 Z M 10.15625 -11.96875 "/></g></g></g><g fill="#000000" fill-opacity="1"><g transform="translate(76.720058, 120.643236)"><g><path d="M 12.921875 -6.28125 C 12.921875 -5.101562 12.65625 -4.019531 12.125 -3.03125 C 11.601562 -2.039062 10.875 -1.257812 9.9375 -0.6875 C 9.007812 -0.113281 7.96875 0.171875 6.8125 0.171875 C 5.644531 0.171875 4.597656 -0.113281 3.671875 -0.6875 C 2.742188 -1.257812 2.019531 -2.039062 1.5 -3.03125 C 0.976562 -4.019531 0.71875 -5.101562 0.71875 -6.28125 C 0.71875 -7.46875 0.976562 -8.554688 1.5 -9.546875 C 2.019531 -10.535156 2.742188 -11.316406 3.671875 -11.890625 C 4.597656 -12.460938 5.644531 -12.75 6.8125 -12.75 C 7.96875 -12.75 9.007812 -12.460938 9.9375 -11.890625 C 10.875 -11.316406 11.601562 -10.535156 12.125 -9.546875 C 12.65625 -8.554688 12.921875 -7.46875 12.921875 -6.28125 Z M 10.578125 -6.28125 C 10.578125 -7.09375 10.414062 -7.820312 10.09375 -8.46875 C 9.769531 -9.125 9.320312 -9.640625 8.75 -10.015625 C 8.175781 -10.398438 7.53125 -10.59375 6.8125 -10.59375 C 6.082031 -10.59375 5.429688 -10.40625 4.859375 -10.03125 C 4.285156 -9.65625 3.835938 -9.140625 3.515625 -8.484375 C 3.203125 -7.828125 3.046875 -7.09375 3.046875 -6.28125 C 3.046875 -5.476562 3.203125 -4.75 3.515625 -4.09375 C 3.835938 -3.4375 4.285156 -2.914062 4.859375 -2.53125 C 5.429688 -2.15625 6.082031 -1.96875 6.8125 -1.96875 C 7.53125 -1.96875 8.175781 -2.160156 8.75 -2.546875 C 9.320312 -2.929688 9.769531 -3.445312 10.09375 -4.09375 C 10.414062 -4.75 10.578125 -5.476562 10.578125 -6.28125 Z M 10.578125 -6.28125 "/></g></g></g><g fill="#000000" fill-opacity="1"><g transform="translate(104.735621, 120.643236)"><g><path d="M 8.28125 -2.109375 C 8.59375 -2.109375 8.851562 -2.007812 9.0625 -1.8125 C 9.269531 -1.613281 9.375 -1.359375 9.375 -1.046875 C 9.375 -0.742188 9.269531 -0.492188 9.0625 -0.296875 C 8.851562 -0.0976562 8.59375 0 8.28125 0 L 2.4375 0 C 2.125 0 1.863281 -0.101562 1.65625 -0.3125 C 1.445312 -0.519531 1.34375 -0.78125 1.34375 -1.09375 L 1.34375 -11.484375 C 1.34375 -11.796875 1.453125 -12.054688 1.671875 -12.265625 C 1.890625 -12.472656 2.164062 -12.578125 2.5 -12.578125 C 2.800781 -12.578125 3.054688 -12.472656 3.265625 -12.265625 C 3.484375 -12.054688 3.59375 -11.796875 3.59375 -11.484375 L 3.59375 -2.109375 Z M 8.28125 -2.109375 "/></g></g></g><g fill="#000000" fill-opacity="1"><g transform="translate(129.211903, 120.643236)"><g><path d="M 12.25 -12.59375 C 12.550781 -12.59375 12.8125 -12.488281 13.03125 -12.28125 C 13.257812 -12.070312 13.375 -11.8125 13.375 -11.5 L 13.375 -1.09375 C 13.375 -0.78125 13.269531 -0.519531 13.0625 -0.3125 C 12.851562 -0.101562 12.582031 0 12.25 0 C 11.914062 0 11.644531 -0.0976562 11.4375 -0.296875 C 11.226562 -0.503906 11.125 -0.769531 11.125 -1.09375 L 11.125 -8.34375 L 8.15625 -3.8125 C 8.039062 -3.664062 7.90625 -3.546875 7.75 -3.453125 C 7.59375 -3.367188 7.429688 -3.332031 7.265625 -3.34375 C 7.109375 -3.332031 6.953125 -3.367188 6.796875 -3.453125 C 6.640625 -3.546875 6.5 -3.664062 6.375 -3.8125 L 3.40625 -8.5 L 3.40625 -1.09375 C 3.40625 -0.769531 3.3125 -0.503906 3.125 -0.296875 C 2.9375 -0.0976562 2.6875 0 2.375 0 C 2.070312 0 1.820312 -0.101562 1.625 -0.3125 C 1.4375 -0.519531 1.34375 -0.78125 1.34375 -1.09375 L 1.34375 -11.5 C 1.34375 -11.800781 1.453125 -12.054688 1.671875 -12.265625 C 1.898438 -12.484375 2.171875 -12.59375 2.484375 -12.59375 C 2.660156 -12.59375 2.835938 -12.546875 3.015625 -12.453125 C 3.191406 -12.367188 3.332031 -12.253906 3.4375 -12.109375 L 7.34375 -6.09375 L 11.375 -12.109375 C 11.46875 -12.253906 11.59375 -12.367188 11.75 -12.453125 C 11.914062 -12.546875 12.082031 -12.59375 12.25 -12.59375 Z M 12.25 -12.59375 "/></g></g></g><g fill="#000000" fill-opacity="1"><g transform="translate(158.305413, 120.643236)"><g><path d="M 8.46875 -2.0625 C 8.78125 -2.0625 9.039062 -1.957031 9.25 -1.75 C 9.457031 -1.539062 9.5625 -1.300781 9.5625 -1.03125 C 9.5625 -0.726562 9.457031 -0.476562 9.25 -0.28125 C 9.039062 -0.09375 8.78125 0 8.46875 0 L 2.4375 0 C 2.125 0 1.863281 -0.101562 1.65625 -0.3125 C 1.445312 -0.519531 1.34375 -0.78125 1.34375 -1.09375 L 1.34375 -11.484375 C 1.34375 -11.796875 1.445312 -12.054688 1.65625 -12.265625 C 1.863281 -12.472656 2.125 -12.578125 2.4375 -12.578125 L 8.46875 -12.578125 C 8.78125 -12.578125 9.039062 -12.476562 9.25 -12.28125 C 9.457031 -12.082031 9.5625 -11.828125 9.5625 -11.515625 C 9.5625 -11.210938 9.457031 -10.96875 9.25 -10.78125 C 9.050781 -10.601562 8.789062 -10.515625 8.46875 -10.515625 L 3.59375 -10.515625 L 3.59375 -7.453125 L 7.65625 -7.453125 C 7.96875 -7.453125 8.226562 -7.351562 8.4375 -7.15625 C 8.644531 -6.957031 8.75 -6.703125 8.75 -6.390625 C 8.75 -6.097656 8.644531 -5.859375 8.4375 -5.671875 C 8.238281 -5.484375 7.976562 -5.390625 7.65625 -5.390625 L 3.59375 -5.390625 L 3.59375 -2.0625 Z M 8.46875 -2.0625 "/></g></g></g><g fill="#000000" fill-opacity="1"><g transform="translate(182.961348, 120.643236)"><g><path d="M 10.890625 -12.578125 C 11.171875 -12.578125 11.398438 -12.476562 11.578125 -12.28125 C 11.765625 -12.09375 11.859375 -11.859375 11.859375 -11.578125 L 11.859375 -1.09375 C 11.859375 -0.78125 11.753906 -0.519531 11.546875 -0.3125 C 11.335938 -0.101562 11.078125 0 10.765625 0 C 10.597656 0 10.429688 -0.0234375 10.265625 -0.078125 C 10.109375 -0.128906 9.992188 -0.207031 9.921875 -0.3125 L 3.328125 -8.671875 L 3.328125 -1 C 3.328125 -0.71875 3.234375 -0.476562 3.046875 -0.28125 C 2.859375 -0.09375 2.613281 0 2.3125 0 C 2.03125 0 1.796875 -0.09375 1.609375 -0.28125 C 1.429688 -0.476562 1.34375 -0.71875 1.34375 -1 L 1.34375 -11.484375 C 1.34375 -11.796875 1.445312 -12.054688 1.65625 -12.265625 C 1.863281 -12.472656 2.125 -12.578125 2.4375 -12.578125 C 2.625 -12.578125 2.800781 -12.539062 2.96875 -12.46875 C 3.144531 -12.394531 3.273438 -12.300781 3.359375 -12.1875 L 9.90625 -3.84375 L 9.90625 -11.578125 C 9.90625 -11.859375 9.992188 -12.09375 10.171875 -12.28125 C 10.359375 -12.476562 10.597656 -12.578125 10.890625 -12.578125 Z M 10.890625 -12.578125 "/></g></g></g><g fill="#000000" fill-opacity="1"><g transform="translate(210.545723, 120.643236)"><g><path d="M 11.21875 -1.40625 C 11.269531 -1.25 11.296875 -1.101562 11.296875 -0.96875 C 11.296875 -0.65625 11.191406 -0.398438 10.984375 -0.203125 C 10.785156 -0.00390625 10.554688 0.09375 10.296875 0.09375 C 10.078125 0.09375 9.878906 0.0234375 9.703125 -0.109375 C 9.535156 -0.242188 9.40625 -0.421875 9.3125 -0.640625 L 8.375 -2.828125 L 3.015625 -2.828125 L 2.078125 -0.625 C 1.992188 -0.394531 1.863281 -0.21875 1.6875 -0.09375 C 1.519531 0.03125 1.332031 0.09375 1.125 0.09375 C 0.820312 0.09375 0.585938 0.0078125 0.421875 -0.15625 C 0.253906 -0.320312 0.171875 -0.550781 0.171875 -0.84375 C 0.171875 -0.945312 0.191406 -1.0625 0.234375 -1.1875 L 4.703125 -11.9375 C 4.796875 -12.175781 4.9375 -12.359375 5.125 -12.484375 C 5.320312 -12.617188 5.539062 -12.675781 5.78125 -12.65625 C 6 -12.65625 6.203125 -12.585938 6.390625 -12.453125 C 6.578125 -12.328125 6.710938 -12.15625 6.796875 -11.9375 Z M 3.90625 -4.890625 L 7.5 -4.890625 L 5.671875 -9.09375 Z M 3.90625 -4.890625 "/></g></g></g><g fill="#000000" fill-opacity="1"><g transform="translate(236.405367, 120.643236)"><g><path d="M 11.21875 -1.765625 C 11.375 -1.660156 11.492188 -1.53125 11.578125 -1.375 C 11.671875 -1.226562 11.71875 -1.066406 11.71875 -0.890625 C 11.71875 -0.679688 11.644531 -0.488281 11.5 -0.3125 C 11.320312 -0.09375 11.046875 0.015625 10.671875 0.015625 C 10.378906 0.015625 10.113281 -0.046875 9.875 -0.171875 C 9.019531 -0.671875 8.59375 -1.675781 8.59375 -3.1875 C 8.59375 -3.613281 8.453125 -3.953125 8.171875 -4.203125 C 7.890625 -4.453125 7.484375 -4.578125 6.953125 -4.578125 L 3.59375 -4.578125 L 3.59375 -1.09375 C 3.59375 -0.769531 3.503906 -0.503906 3.328125 -0.296875 C 3.160156 -0.0976562 2.929688 0 2.640625 0 C 2.296875 0 1.992188 -0.101562 1.734375 -0.3125 C 1.472656 -0.519531 1.34375 -0.78125 1.34375 -1.09375 L 1.34375 -11.484375 C 1.34375 -11.796875 1.445312 -12.054688 1.65625 -12.265625 C 1.863281 -12.472656 2.125 -12.578125 2.4375 -12.578125 L 7.625 -12.578125 C 8.238281 -12.578125 8.820312 -12.410156 9.375 -12.078125 C 9.925781 -11.742188 10.363281 -11.28125 10.6875 -10.6875 C 11.019531 -10.101562 11.1875 -9.445312 11.1875 -8.71875 C 11.1875 -8.113281 11.023438 -7.523438 10.703125 -6.953125 C 10.378906 -6.390625 9.960938 -5.941406 9.453125 -5.609375 C 10.203125 -5.078125 10.613281 -4.367188 10.6875 -3.484375 C 10.726562 -3.296875 10.75 -3.109375 10.75 -2.921875 C 10.789062 -2.554688 10.832031 -2.289062 10.875 -2.125 C 10.925781 -1.96875 11.039062 -1.847656 11.21875 -1.765625 Z M 7.53125 -6.4375 C 7.75 -6.4375 7.957031 -6.535156 8.15625 -6.734375 C 8.363281 -6.941406 8.53125 -7.210938 8.65625 -7.546875 C 8.789062 -7.890625 8.859375 -8.257812 8.859375 -8.65625 C 8.859375 -8.988281 8.789062 -9.296875 8.65625 -9.578125 C 8.53125 -9.867188 8.363281 -10.097656 8.15625 -10.265625 C 7.957031 -10.429688 7.75 -10.515625 7.53125 -10.515625 L 3.59375 -10.515625 L 3.59375 -6.4375 Z M 7.53125 -6.4375 "/></g></g></g><g fill="#000000" fill-opacity="1"><g transform="translate(263.127377, 120.643236)"><g><path d="M 8.46875 -2.0625 C 8.78125 -2.0625 9.039062 -1.957031 9.25 -1.75 C 9.457031 -1.539062 9.5625 -1.300781 9.5625 -1.03125 C 9.5625 -0.726562 9.457031 -0.476562 9.25 -0.28125 C 9.039062 -0.09375 8.78125 0 8.46875 0 L 2.4375 0 C 2.125 0 1.863281 -0.101562 1.65625 -0.3125 C 1.445312 -0.519531 1.34375 -0.78125 1.34375 -1.09375 L 1.34375 -11.484375 C 1.34375 -11.796875 1.445312 -12.054688 1.65625 -12.265625 C 1.863281 -12.472656 2.125 -12.578125 2.4375 -12.578125 L 8.46875 -12.578125 C 8.78125 -12.578125 9.039062 -12.476562 9.25 -12.28125 C 9.457031 -12.082031 9.5625 -11.828125 9.5625 -11.515625 C 9.5625 -11.210938 9.457031 -10.96875 9.25 -10.78125 C 9.050781 -10.601562 8.789062 -10.515625 8.46875 -10.515625 L 3.59375 -10.515625 L 3.59375 -7.453125 L 7.65625 -7.453125 C 7.96875 -7.453125 8.226562 -7.351562 8.4375 -7.15625 C 8.644531 -6.957031 8.75 -6.703125 8.75 -6.390625 C 8.75 -6.097656 8.644531 -5.859375 8.4375 -5.671875 C 8.238281 -5.484375 7.976562 -5.390625 7.65625 -5.390625 L 3.59375 -5.390625 L 3.59375 -2.0625 Z M 8.46875 -2.0625 "/></g></g></g><g fill="#000000" fill-opacity="1"><g transform="translate(287.783313, 120.643236)"><g><path d="M 5.390625 0.171875 C 4.523438 0.171875 3.753906 0.0664062 3.078125 -0.140625 C 2.410156 -0.359375 1.785156 -0.722656 1.203125 -1.234375 C 0.878906 -1.523438 0.71875 -1.84375 0.71875 -2.1875 C 0.71875 -2.46875 0.816406 -2.710938 1.015625 -2.921875 C 1.222656 -3.128906 1.472656 -3.234375 1.765625 -3.234375 C 1.992188 -3.234375 2.195312 -3.160156 2.375 -3.015625 C 2.851562 -2.617188 3.316406 -2.332031 3.765625 -2.15625 C 4.222656 -1.976562 4.765625 -1.890625 5.390625 -1.890625 C 6.054688 -1.890625 6.632812 -2.035156 7.125 -2.328125 C 7.613281 -2.628906 7.859375 -3.003906 7.859375 -3.453125 C 7.859375 -3.992188 7.617188 -4.414062 7.140625 -4.71875 C 6.660156 -5.019531 5.894531 -5.25 4.84375 -5.40625 C 2.226562 -5.789062 0.921875 -7.015625 0.921875 -9.078125 C 0.921875 -9.828125 1.117188 -10.476562 1.515625 -11.03125 C 1.910156 -11.59375 2.445312 -12.019531 3.125 -12.3125 C 3.8125 -12.601562 4.570312 -12.75 5.40625 -12.75 C 6.164062 -12.75 6.875 -12.632812 7.53125 -12.40625 C 8.195312 -12.1875 8.753906 -11.890625 9.203125 -11.515625 C 9.546875 -11.242188 9.71875 -10.925781 9.71875 -10.5625 C 9.71875 -10.289062 9.613281 -10.046875 9.40625 -9.828125 C 9.207031 -9.617188 8.972656 -9.515625 8.703125 -9.515625 C 8.515625 -9.515625 8.351562 -9.570312 8.21875 -9.6875 C 7.90625 -9.9375 7.46875 -10.164062 6.90625 -10.375 C 6.351562 -10.582031 5.851562 -10.6875 5.40625 -10.6875 C 4.65625 -10.6875 4.070312 -10.546875 3.65625 -10.265625 C 3.238281 -9.984375 3.03125 -9.613281 3.03125 -9.15625 C 3.03125 -8.644531 3.242188 -8.253906 3.671875 -7.984375 C 4.097656 -7.722656 4.765625 -7.507812 5.671875 -7.34375 C 6.703125 -7.164062 7.523438 -6.9375 8.140625 -6.65625 C 8.765625 -6.375 9.234375 -5.988281 9.546875 -5.5 C 9.859375 -5.019531 10.015625 -4.378906 10.015625 -3.578125 C 10.015625 -2.816406 9.800781 -2.148438 9.375 -1.578125 C 8.945312 -1.015625 8.378906 -0.582031 7.671875 -0.28125 C 6.960938 0.0195312 6.203125 0.171875 5.390625 0.171875 Z M 5.390625 0.171875 "/></g></g></g></svg>